M48
; DRILL file {KiCad 9.0.3} date 2025-07-25T20:11:02+0700
; FORMAT={-:-/ absolute / metric / decimal}
; #@! TF.CreationDate,2025-07-25T20:11:02+07:00
; #@! TF.GenerationSoftware,Kicad,Pcbnew,9.0.3
; #@! TF.FileFunction,MixedPlating,1,2
FMAT,2
METRIC
; #@! TA.AperFunction,Plated,PTH,ComponentDrill
T1C0.700
; #@! TA.AperFunction,Plated,PTH,ComponentDrill
T2C0.889
; #@! TA.AperFunction,Plated,PTH,ComponentDrill
T3C1.000
; #@! TA.AperFunction,Plated,PTH,ComponentDrill
T4C1.210
; #@! TA.AperFunction,Plated,PTH,ComponentDrill
T5C1.500
; #@! TA.AperFunction,NonPlated,NPTH,ComponentDrill
T6C1.700
; #@! TA.AperFunction,NonPlated,NPTH,ComponentDrill
T7C3.200
; #@! TA.AperFunction,NonPlated,NPTH,ComponentDrill
T8C4.000
%
G90
G05
T1
X138.642Y-89.335
X143.722Y-89.335
X148.137Y-89.335
X153.218Y-89.335
X157.637Y-89.335
X162.718Y-89.335
X166.65Y-67.85
X167.127Y-89.335
X172.207Y-89.335
T2
X138.892Y-65.36
X138.892Y-67.9
X138.892Y-70.44
X138.892Y-72.98
X138.892Y-75.52
X138.892Y-78.06
X138.892Y-80.6
X154.132Y-65.36
X154.132Y-67.9
X154.132Y-70.44
X154.132Y-72.98
X154.132Y-75.52
X154.132Y-78.06
X154.132Y-80.6
T3
X134.968Y-65.26
X134.968Y-67.8
X134.968Y-70.34
X134.968Y-72.88
X134.968Y-75.42
X134.968Y-77.96
X134.968Y-80.5
X158.042Y-65.37
X158.042Y-67.91
X158.042Y-70.45
X158.042Y-72.99
X158.042Y-75.53
X158.042Y-78.07
X158.042Y-80.61
T4
X161.85Y-79.3
X161.85Y-71.895
X164.39Y-79.3
X164.39Y-71.895
X169.142Y-71.86
X169.142Y-79.325
X171.683Y-71.86
X171.683Y-79.325
T5
X141.642Y-100.36
X141.642Y-119.36
X147.993Y-97.82
X147.993Y-116.82
X160.832Y-100.36
X160.832Y-119.36
X167.183Y-97.82
X167.183Y-116.82
T6
X140.373Y-102.9
X140.373Y-121.9
X150.532Y-102.9
X150.532Y-121.9
X159.562Y-102.9
X159.562Y-121.9
X169.722Y-102.9
X169.722Y-121.9
T7
X173.982Y-64.42
T8
X145.452Y-102.9
X145.452Y-121.9
X164.642Y-102.9
X164.642Y-121.9
M30
