%TF.GenerationSoftware,KiCad,Pcbnew,9.0.3*%
%TF.CreationDate,2025-07-25T20:06:53+07:00*%
%TF.ProjectId,Pathfinder,50617468-6669-46e6-9465-722e6b696361,rev?*%
%TF.SameCoordinates,Original*%
%TF.FileFunction,Legend,Top*%
%TF.FilePolarity,Positive*%
%FSLAX46Y46*%
G04 Gerber Fmt 4.6, Leading zero omitted, Abs format (unit mm)*
G04 Created by KiCad (PCBNEW 9.0.3) date 2025-07-25 20:06:53*
%MOMM*%
%LPD*%
G01*
G04 APERTURE LIST*
%ADD10C,0.150000*%
%ADD11C,0.101600*%
%ADD12C,0.120000*%
%ADD13C,0.127000*%
%ADD14C,0.200000*%
%ADD15C,0.100000*%
%ADD16C,0.504000*%
G04 APERTURE END LIST*
D10*
X150510833Y-87869819D02*
X150177500Y-87393628D01*
X149939405Y-87869819D02*
X149939405Y-86869819D01*
X149939405Y-86869819D02*
X150320357Y-86869819D01*
X150320357Y-86869819D02*
X150415595Y-86917438D01*
X150415595Y-86917438D02*
X150463214Y-86965057D01*
X150463214Y-86965057D02*
X150510833Y-87060295D01*
X150510833Y-87060295D02*
X150510833Y-87203152D01*
X150510833Y-87203152D02*
X150463214Y-87298390D01*
X150463214Y-87298390D02*
X150415595Y-87346009D01*
X150415595Y-87346009D02*
X150320357Y-87393628D01*
X150320357Y-87393628D02*
X149939405Y-87393628D01*
X150891786Y-86965057D02*
X150939405Y-86917438D01*
X150939405Y-86917438D02*
X151034643Y-86869819D01*
X151034643Y-86869819D02*
X151272738Y-86869819D01*
X151272738Y-86869819D02*
X151367976Y-86917438D01*
X151367976Y-86917438D02*
X151415595Y-86965057D01*
X151415595Y-86965057D02*
X151463214Y-87060295D01*
X151463214Y-87060295D02*
X151463214Y-87155533D01*
X151463214Y-87155533D02*
X151415595Y-87298390D01*
X151415595Y-87298390D02*
X150844167Y-87869819D01*
X150844167Y-87869819D02*
X151463214Y-87869819D01*
X141015833Y-87869819D02*
X140682500Y-87393628D01*
X140444405Y-87869819D02*
X140444405Y-86869819D01*
X140444405Y-86869819D02*
X140825357Y-86869819D01*
X140825357Y-86869819D02*
X140920595Y-86917438D01*
X140920595Y-86917438D02*
X140968214Y-86965057D01*
X140968214Y-86965057D02*
X141015833Y-87060295D01*
X141015833Y-87060295D02*
X141015833Y-87203152D01*
X141015833Y-87203152D02*
X140968214Y-87298390D01*
X140968214Y-87298390D02*
X140920595Y-87346009D01*
X140920595Y-87346009D02*
X140825357Y-87393628D01*
X140825357Y-87393628D02*
X140444405Y-87393628D01*
X141968214Y-87869819D02*
X141396786Y-87869819D01*
X141682500Y-87869819D02*
X141682500Y-86869819D01*
X141682500Y-86869819D02*
X141587262Y-87012676D01*
X141587262Y-87012676D02*
X141492024Y-87107914D01*
X141492024Y-87107914D02*
X141396786Y-87155533D01*
X163309167Y-114433200D02*
X163452024Y-114480819D01*
X163452024Y-114480819D02*
X163690119Y-114480819D01*
X163690119Y-114480819D02*
X163785357Y-114433200D01*
X163785357Y-114433200D02*
X163832976Y-114385580D01*
X163832976Y-114385580D02*
X163880595Y-114290342D01*
X163880595Y-114290342D02*
X163880595Y-114195104D01*
X163880595Y-114195104D02*
X163832976Y-114099866D01*
X163832976Y-114099866D02*
X163785357Y-114052247D01*
X163785357Y-114052247D02*
X163690119Y-114004628D01*
X163690119Y-114004628D02*
X163499643Y-113957009D01*
X163499643Y-113957009D02*
X163404405Y-113909390D01*
X163404405Y-113909390D02*
X163356786Y-113861771D01*
X163356786Y-113861771D02*
X163309167Y-113766533D01*
X163309167Y-113766533D02*
X163309167Y-113671295D01*
X163309167Y-113671295D02*
X163356786Y-113576057D01*
X163356786Y-113576057D02*
X163404405Y-113528438D01*
X163404405Y-113528438D02*
X163499643Y-113480819D01*
X163499643Y-113480819D02*
X163737738Y-113480819D01*
X163737738Y-113480819D02*
X163880595Y-113528438D01*
X164213929Y-113480819D02*
X164452024Y-114480819D01*
X164452024Y-114480819D02*
X164642500Y-113766533D01*
X164642500Y-113766533D02*
X164832976Y-114480819D01*
X164832976Y-114480819D02*
X165071072Y-113480819D01*
X165880595Y-113814152D02*
X165880595Y-114480819D01*
X165642500Y-113433200D02*
X165404405Y-114147485D01*
X165404405Y-114147485D02*
X166023452Y-114147485D01*
X160010833Y-87869819D02*
X159677500Y-87393628D01*
X159439405Y-87869819D02*
X159439405Y-86869819D01*
X159439405Y-86869819D02*
X159820357Y-86869819D01*
X159820357Y-86869819D02*
X159915595Y-86917438D01*
X159915595Y-86917438D02*
X159963214Y-86965057D01*
X159963214Y-86965057D02*
X160010833Y-87060295D01*
X160010833Y-87060295D02*
X160010833Y-87203152D01*
X160010833Y-87203152D02*
X159963214Y-87298390D01*
X159963214Y-87298390D02*
X159915595Y-87346009D01*
X159915595Y-87346009D02*
X159820357Y-87393628D01*
X159820357Y-87393628D02*
X159439405Y-87393628D01*
X160344167Y-86869819D02*
X160963214Y-86869819D01*
X160963214Y-86869819D02*
X160629881Y-87250771D01*
X160629881Y-87250771D02*
X160772738Y-87250771D01*
X160772738Y-87250771D02*
X160867976Y-87298390D01*
X160867976Y-87298390D02*
X160915595Y-87346009D01*
X160915595Y-87346009D02*
X160963214Y-87441247D01*
X160963214Y-87441247D02*
X160963214Y-87679342D01*
X160963214Y-87679342D02*
X160915595Y-87774580D01*
X160915595Y-87774580D02*
X160867976Y-87822200D01*
X160867976Y-87822200D02*
X160772738Y-87869819D01*
X160772738Y-87869819D02*
X160487024Y-87869819D01*
X160487024Y-87869819D02*
X160391786Y-87822200D01*
X160391786Y-87822200D02*
X160344167Y-87774580D01*
X169500833Y-87869819D02*
X169167500Y-87393628D01*
X168929405Y-87869819D02*
X168929405Y-86869819D01*
X168929405Y-86869819D02*
X169310357Y-86869819D01*
X169310357Y-86869819D02*
X169405595Y-86917438D01*
X169405595Y-86917438D02*
X169453214Y-86965057D01*
X169453214Y-86965057D02*
X169500833Y-87060295D01*
X169500833Y-87060295D02*
X169500833Y-87203152D01*
X169500833Y-87203152D02*
X169453214Y-87298390D01*
X169453214Y-87298390D02*
X169405595Y-87346009D01*
X169405595Y-87346009D02*
X169310357Y-87393628D01*
X169310357Y-87393628D02*
X168929405Y-87393628D01*
X170357976Y-87203152D02*
X170357976Y-87869819D01*
X170119881Y-86822200D02*
X169881786Y-87536485D01*
X169881786Y-87536485D02*
X170500833Y-87536485D01*
D11*
X143307262Y-72544811D02*
X143730595Y-73344811D01*
X143730595Y-72544811D02*
X143307262Y-73344811D01*
X143972500Y-73344811D02*
X143972500Y-72544811D01*
X144244643Y-73116239D02*
X144547024Y-73116239D01*
X144184167Y-73344811D02*
X144395833Y-72544811D01*
X144395833Y-72544811D02*
X144607500Y-73344811D01*
X144940119Y-72544811D02*
X145061072Y-72544811D01*
X145061072Y-72544811D02*
X145121548Y-72582906D01*
X145121548Y-72582906D02*
X145182024Y-72659096D01*
X145182024Y-72659096D02*
X145212262Y-72811477D01*
X145212262Y-72811477D02*
X145212262Y-73078144D01*
X145212262Y-73078144D02*
X145182024Y-73230525D01*
X145182024Y-73230525D02*
X145121548Y-73306716D01*
X145121548Y-73306716D02*
X145061072Y-73344811D01*
X145061072Y-73344811D02*
X144940119Y-73344811D01*
X144940119Y-73344811D02*
X144879643Y-73306716D01*
X144879643Y-73306716D02*
X144819167Y-73230525D01*
X144819167Y-73230525D02*
X144788929Y-73078144D01*
X144788929Y-73078144D02*
X144788929Y-72811477D01*
X144788929Y-72811477D02*
X144819167Y-72659096D01*
X144819167Y-72659096D02*
X144879643Y-72582906D01*
X144879643Y-72582906D02*
X144940119Y-72544811D01*
X145484405Y-73040049D02*
X145968215Y-73040049D01*
X146633452Y-73344811D02*
X146421785Y-72963858D01*
X146270595Y-73344811D02*
X146270595Y-72544811D01*
X146270595Y-72544811D02*
X146512500Y-72544811D01*
X146512500Y-72544811D02*
X146572976Y-72582906D01*
X146572976Y-72582906D02*
X146603214Y-72621001D01*
X146603214Y-72621001D02*
X146633452Y-72697192D01*
X146633452Y-72697192D02*
X146633452Y-72811477D01*
X146633452Y-72811477D02*
X146603214Y-72887668D01*
X146603214Y-72887668D02*
X146572976Y-72925763D01*
X146572976Y-72925763D02*
X146512500Y-72963858D01*
X146512500Y-72963858D02*
X146270595Y-72963858D01*
X146905595Y-73344811D02*
X146905595Y-72544811D01*
X146905595Y-72544811D02*
X147147500Y-72544811D01*
X147147500Y-72544811D02*
X147207976Y-72582906D01*
X147207976Y-72582906D02*
X147238214Y-72621001D01*
X147238214Y-72621001D02*
X147268452Y-72697192D01*
X147268452Y-72697192D02*
X147268452Y-72811477D01*
X147268452Y-72811477D02*
X147238214Y-72887668D01*
X147238214Y-72887668D02*
X147207976Y-72925763D01*
X147207976Y-72925763D02*
X147147500Y-72963858D01*
X147147500Y-72963858D02*
X146905595Y-72963858D01*
X147510357Y-72621001D02*
X147540595Y-72582906D01*
X147540595Y-72582906D02*
X147601071Y-72544811D01*
X147601071Y-72544811D02*
X147752262Y-72544811D01*
X147752262Y-72544811D02*
X147812738Y-72582906D01*
X147812738Y-72582906D02*
X147842976Y-72621001D01*
X147842976Y-72621001D02*
X147873214Y-72697192D01*
X147873214Y-72697192D02*
X147873214Y-72773382D01*
X147873214Y-72773382D02*
X147842976Y-72887668D01*
X147842976Y-72887668D02*
X147480119Y-73344811D01*
X147480119Y-73344811D02*
X147873214Y-73344811D01*
X148266309Y-72544811D02*
X148326786Y-72544811D01*
X148326786Y-72544811D02*
X148387262Y-72582906D01*
X148387262Y-72582906D02*
X148417500Y-72621001D01*
X148417500Y-72621001D02*
X148447738Y-72697192D01*
X148447738Y-72697192D02*
X148477976Y-72849573D01*
X148477976Y-72849573D02*
X148477976Y-73040049D01*
X148477976Y-73040049D02*
X148447738Y-73192430D01*
X148447738Y-73192430D02*
X148417500Y-73268620D01*
X148417500Y-73268620D02*
X148387262Y-73306716D01*
X148387262Y-73306716D02*
X148326786Y-73344811D01*
X148326786Y-73344811D02*
X148266309Y-73344811D01*
X148266309Y-73344811D02*
X148205833Y-73306716D01*
X148205833Y-73306716D02*
X148175595Y-73268620D01*
X148175595Y-73268620D02*
X148145357Y-73192430D01*
X148145357Y-73192430D02*
X148115119Y-73040049D01*
X148115119Y-73040049D02*
X148115119Y-72849573D01*
X148115119Y-72849573D02*
X148145357Y-72697192D01*
X148145357Y-72697192D02*
X148175595Y-72621001D01*
X148175595Y-72621001D02*
X148205833Y-72582906D01*
X148205833Y-72582906D02*
X148266309Y-72544811D01*
X149022262Y-72811477D02*
X149022262Y-73344811D01*
X148871071Y-72506716D02*
X148719881Y-73078144D01*
X148719881Y-73078144D02*
X149112976Y-73078144D01*
X149475833Y-72544811D02*
X149536310Y-72544811D01*
X149536310Y-72544811D02*
X149596786Y-72582906D01*
X149596786Y-72582906D02*
X149627024Y-72621001D01*
X149627024Y-72621001D02*
X149657262Y-72697192D01*
X149657262Y-72697192D02*
X149687500Y-72849573D01*
X149687500Y-72849573D02*
X149687500Y-73040049D01*
X149687500Y-73040049D02*
X149657262Y-73192430D01*
X149657262Y-73192430D02*
X149627024Y-73268620D01*
X149627024Y-73268620D02*
X149596786Y-73306716D01*
X149596786Y-73306716D02*
X149536310Y-73344811D01*
X149536310Y-73344811D02*
X149475833Y-73344811D01*
X149475833Y-73344811D02*
X149415357Y-73306716D01*
X149415357Y-73306716D02*
X149385119Y-73268620D01*
X149385119Y-73268620D02*
X149354881Y-73192430D01*
X149354881Y-73192430D02*
X149324643Y-73040049D01*
X149324643Y-73040049D02*
X149324643Y-72849573D01*
X149324643Y-72849573D02*
X149354881Y-72697192D01*
X149354881Y-72697192D02*
X149385119Y-72621001D01*
X149385119Y-72621001D02*
X149415357Y-72582906D01*
X149415357Y-72582906D02*
X149475833Y-72544811D01*
D10*
X163809167Y-95267200D02*
X163952024Y-95314819D01*
X163952024Y-95314819D02*
X164190119Y-95314819D01*
X164190119Y-95314819D02*
X164285357Y-95267200D01*
X164285357Y-95267200D02*
X164332976Y-95219580D01*
X164332976Y-95219580D02*
X164380595Y-95124342D01*
X164380595Y-95124342D02*
X164380595Y-95029104D01*
X164380595Y-95029104D02*
X164332976Y-94933866D01*
X164332976Y-94933866D02*
X164285357Y-94886247D01*
X164285357Y-94886247D02*
X164190119Y-94838628D01*
X164190119Y-94838628D02*
X163999643Y-94791009D01*
X163999643Y-94791009D02*
X163904405Y-94743390D01*
X163904405Y-94743390D02*
X163856786Y-94695771D01*
X163856786Y-94695771D02*
X163809167Y-94600533D01*
X163809167Y-94600533D02*
X163809167Y-94505295D01*
X163809167Y-94505295D02*
X163856786Y-94410057D01*
X163856786Y-94410057D02*
X163904405Y-94362438D01*
X163904405Y-94362438D02*
X163999643Y-94314819D01*
X163999643Y-94314819D02*
X164237738Y-94314819D01*
X164237738Y-94314819D02*
X164380595Y-94362438D01*
X164713929Y-94314819D02*
X164952024Y-95314819D01*
X164952024Y-95314819D02*
X165142500Y-94600533D01*
X165142500Y-94600533D02*
X165332976Y-95314819D01*
X165332976Y-95314819D02*
X165571072Y-94314819D01*
X165904405Y-94410057D02*
X165952024Y-94362438D01*
X165952024Y-94362438D02*
X166047262Y-94314819D01*
X166047262Y-94314819D02*
X166285357Y-94314819D01*
X166285357Y-94314819D02*
X166380595Y-94362438D01*
X166380595Y-94362438D02*
X166428214Y-94410057D01*
X166428214Y-94410057D02*
X166475833Y-94505295D01*
X166475833Y-94505295D02*
X166475833Y-94600533D01*
X166475833Y-94600533D02*
X166428214Y-94743390D01*
X166428214Y-94743390D02*
X165856786Y-95314819D01*
X165856786Y-95314819D02*
X166475833Y-95314819D01*
X144119167Y-95433200D02*
X144262024Y-95480819D01*
X144262024Y-95480819D02*
X144500119Y-95480819D01*
X144500119Y-95480819D02*
X144595357Y-95433200D01*
X144595357Y-95433200D02*
X144642976Y-95385580D01*
X144642976Y-95385580D02*
X144690595Y-95290342D01*
X144690595Y-95290342D02*
X144690595Y-95195104D01*
X144690595Y-95195104D02*
X144642976Y-95099866D01*
X144642976Y-95099866D02*
X144595357Y-95052247D01*
X144595357Y-95052247D02*
X144500119Y-95004628D01*
X144500119Y-95004628D02*
X144309643Y-94957009D01*
X144309643Y-94957009D02*
X144214405Y-94909390D01*
X144214405Y-94909390D02*
X144166786Y-94861771D01*
X144166786Y-94861771D02*
X144119167Y-94766533D01*
X144119167Y-94766533D02*
X144119167Y-94671295D01*
X144119167Y-94671295D02*
X144166786Y-94576057D01*
X144166786Y-94576057D02*
X144214405Y-94528438D01*
X144214405Y-94528438D02*
X144309643Y-94480819D01*
X144309643Y-94480819D02*
X144547738Y-94480819D01*
X144547738Y-94480819D02*
X144690595Y-94528438D01*
X145023929Y-94480819D02*
X145262024Y-95480819D01*
X145262024Y-95480819D02*
X145452500Y-94766533D01*
X145452500Y-94766533D02*
X145642976Y-95480819D01*
X145642976Y-95480819D02*
X145881072Y-94480819D01*
X146785833Y-95480819D02*
X146214405Y-95480819D01*
X146500119Y-95480819D02*
X146500119Y-94480819D01*
X146500119Y-94480819D02*
X146404881Y-94623676D01*
X146404881Y-94623676D02*
X146309643Y-94718914D01*
X146309643Y-94718914D02*
X146214405Y-94766533D01*
X144119167Y-114433200D02*
X144262024Y-114480819D01*
X144262024Y-114480819D02*
X144500119Y-114480819D01*
X144500119Y-114480819D02*
X144595357Y-114433200D01*
X144595357Y-114433200D02*
X144642976Y-114385580D01*
X144642976Y-114385580D02*
X144690595Y-114290342D01*
X144690595Y-114290342D02*
X144690595Y-114195104D01*
X144690595Y-114195104D02*
X144642976Y-114099866D01*
X144642976Y-114099866D02*
X144595357Y-114052247D01*
X144595357Y-114052247D02*
X144500119Y-114004628D01*
X144500119Y-114004628D02*
X144309643Y-113957009D01*
X144309643Y-113957009D02*
X144214405Y-113909390D01*
X144214405Y-113909390D02*
X144166786Y-113861771D01*
X144166786Y-113861771D02*
X144119167Y-113766533D01*
X144119167Y-113766533D02*
X144119167Y-113671295D01*
X144119167Y-113671295D02*
X144166786Y-113576057D01*
X144166786Y-113576057D02*
X144214405Y-113528438D01*
X144214405Y-113528438D02*
X144309643Y-113480819D01*
X144309643Y-113480819D02*
X144547738Y-113480819D01*
X144547738Y-113480819D02*
X144690595Y-113528438D01*
X145023929Y-113480819D02*
X145262024Y-114480819D01*
X145262024Y-114480819D02*
X145452500Y-113766533D01*
X145452500Y-113766533D02*
X145642976Y-114480819D01*
X145642976Y-114480819D02*
X145881072Y-113480819D01*
X146166786Y-113480819D02*
X146785833Y-113480819D01*
X146785833Y-113480819D02*
X146452500Y-113861771D01*
X146452500Y-113861771D02*
X146595357Y-113861771D01*
X146595357Y-113861771D02*
X146690595Y-113909390D01*
X146690595Y-113909390D02*
X146738214Y-113957009D01*
X146738214Y-113957009D02*
X146785833Y-114052247D01*
X146785833Y-114052247D02*
X146785833Y-114290342D01*
X146785833Y-114290342D02*
X146738214Y-114385580D01*
X146738214Y-114385580D02*
X146690595Y-114433200D01*
X146690595Y-114433200D02*
X146595357Y-114480819D01*
X146595357Y-114480819D02*
X146309643Y-114480819D01*
X146309643Y-114480819D02*
X146214405Y-114433200D01*
X146214405Y-114433200D02*
X146166786Y-114385580D01*
D12*
%TO.C,J2*%
X159372500Y-66640000D02*
X159372500Y-81940000D01*
X156712500Y-81940000D02*
X159372500Y-81940000D01*
X156712500Y-66640000D02*
X159372500Y-66640000D01*
X156712500Y-66640000D02*
X156712500Y-81940000D01*
X156712500Y-65370000D02*
X156712500Y-64040000D01*
X156712500Y-64040000D02*
X158042500Y-64040000D01*
%TO.C,J1*%
X136297500Y-66530000D02*
X136297500Y-81830000D01*
X133637500Y-81830000D02*
X136297500Y-81830000D01*
X133637500Y-66530000D02*
X136297500Y-66530000D01*
X133637500Y-66530000D02*
X133637500Y-81830000D01*
X133637500Y-65260000D02*
X133637500Y-63930000D01*
X133637500Y-63930000D02*
X134967500Y-63930000D01*
%TO.C,R2*%
X148757500Y-88415000D02*
X152597500Y-88415000D01*
X148757500Y-90255000D02*
X152597500Y-90255000D01*
%TO.C,R1*%
X139262500Y-88415000D02*
X143102500Y-88415000D01*
X139262500Y-90255000D02*
X143102500Y-90255000D01*
%TO.C,SW4*%
X157657500Y-114915000D02*
X171627500Y-114915000D01*
X157657500Y-128885000D02*
X157657500Y-114915000D01*
X171627500Y-114915000D02*
X171627500Y-128885000D01*
X171627500Y-128885000D02*
X157657500Y-128885000D01*
%TO.C,R3*%
X158257500Y-88415000D02*
X162097500Y-88415000D01*
X158257500Y-90255000D02*
X162097500Y-90255000D01*
D13*
%TO.C,D4*%
X167912500Y-77759106D02*
X167912500Y-80891106D01*
X167912500Y-77759106D02*
G75*
G02*
X167912500Y-80891106I2506124J-1566000D01*
G01*
D14*
X167312500Y-79325106D02*
G75*
G02*
X167112500Y-79325106I-100000J0D01*
G01*
X167112500Y-79325106D02*
G75*
G02*
X167312500Y-79325106I100000J0D01*
G01*
D12*
%TO.C,R4*%
X167747500Y-88415000D02*
X171587500Y-88415000D01*
X167747500Y-90255000D02*
X171587500Y-90255000D01*
D13*
%TO.C,XIAO-RP2040*%
X137622500Y-81489000D02*
X137622500Y-64344000D01*
X139527500Y-83394000D02*
X153497500Y-83394000D01*
X142017500Y-62439000D02*
X142021228Y-61528728D01*
X142521228Y-61029000D02*
X150516500Y-61029000D01*
X151016500Y-61529000D02*
X151016500Y-62439000D01*
D15*
X153497500Y-62439000D02*
X139527500Y-62439000D01*
D13*
X153497500Y-62439000D02*
X139527500Y-62439000D01*
X155402500Y-81489000D02*
X155402500Y-64344000D01*
X137622500Y-64344000D02*
G75*
G02*
X139527500Y-62439000I1905001J-1D01*
G01*
X139527500Y-83394000D02*
G75*
G02*
X137622500Y-81489000I1J1905001D01*
G01*
X142021228Y-61528728D02*
G75*
G02*
X142521228Y-61029001I500018J-291D01*
G01*
X150516500Y-61029000D02*
G75*
G02*
X151016500Y-61529000I0J-500000D01*
G01*
X153497500Y-62439000D02*
G75*
G02*
X155402500Y-64344000I0J-1905000D01*
G01*
X155402500Y-81489000D02*
G75*
G02*
X153497500Y-83394000I-1905000J0D01*
G01*
D16*
X137814500Y-62680000D02*
G75*
G02*
X137310500Y-62680000I-252000J0D01*
G01*
X137310500Y-62680000D02*
G75*
G02*
X137814500Y-62680000I252000J0D01*
G01*
X138957500Y-63560000D02*
G75*
G02*
X138453500Y-63560000I-252000J0D01*
G01*
X138453500Y-63560000D02*
G75*
G02*
X138957500Y-63560000I252000J0D01*
G01*
D14*
%TO.C,D1*%
X166419573Y-79300000D02*
G75*
G02*
X166219573Y-79300000I-100000J0D01*
G01*
X166219573Y-79300000D02*
G75*
G02*
X166419573Y-79300000I100000J0D01*
G01*
D13*
X165619573Y-80866000D02*
G75*
G02*
X165619573Y-77734000I-2506124J1566000D01*
G01*
X165619573Y-80866000D02*
X165619573Y-77734000D01*
%TO.C,D2*%
X165620000Y-73460894D02*
X165620000Y-70328894D01*
X165620000Y-73460894D02*
G75*
G02*
X165620000Y-70328894I-2506124J1566000D01*
G01*
D14*
X166420000Y-71894894D02*
G75*
G02*
X166220000Y-71894894I-100000J0D01*
G01*
X166220000Y-71894894D02*
G75*
G02*
X166420000Y-71894894I100000J0D01*
G01*
D12*
%TO.C,SW2*%
X157657500Y-95915000D02*
X171627500Y-95915000D01*
X157657500Y-109885000D02*
X157657500Y-95915000D01*
X171627500Y-95915000D02*
X171627500Y-109885000D01*
X171627500Y-109885000D02*
X157657500Y-109885000D01*
%TO.C,J3*%
X167600000Y-67850000D02*
G75*
G02*
X165700000Y-67850000I-950000J0D01*
G01*
X165700000Y-67850000D02*
G75*
G02*
X167600000Y-67850000I950000J0D01*
G01*
%TO.C,SW1*%
X138467500Y-95915000D02*
X152437500Y-95915000D01*
X138467500Y-109885000D02*
X138467500Y-95915000D01*
X152437500Y-95915000D02*
X152437500Y-109885000D01*
X152437500Y-109885000D02*
X138467500Y-109885000D01*
D13*
%TO.C,D3*%
X167912500Y-70294000D02*
X167912500Y-73426000D01*
X167912500Y-70294000D02*
G75*
G02*
X167912500Y-73426000I2506124J-1566000D01*
G01*
D14*
X167312500Y-71860000D02*
G75*
G02*
X167112500Y-71860000I-100000J0D01*
G01*
X167112500Y-71860000D02*
G75*
G02*
X167312500Y-71860000I100000J0D01*
G01*
D12*
%TO.C,SW3*%
X138467500Y-114915000D02*
X152437500Y-114915000D01*
X138467500Y-128885000D02*
X138467500Y-114915000D01*
X152437500Y-114915000D02*
X152437500Y-128885000D01*
X152437500Y-128885000D02*
X138467500Y-128885000D01*
%TD*%
M02*
