%TF.GenerationSoftware,KiCad,Pcbnew,9.0.3*%
%TF.CreationDate,2025-07-25T20:06:53+07:00*%
%TF.ProjectId,Pathfinder,50617468-6669-46e6-9465-722e6b696361,rev?*%
%TF.SameCoordinates,Original*%
%TF.FileFunction,Copper,L2,Bot*%
%TF.FilePolarity,Positive*%
%FSLAX46Y46*%
G04 Gerber Fmt 4.6, Leading zero omitted, Abs format (unit mm)*
G04 Created by KiCad (PCBNEW 9.0.3) date 2025-07-25 20:06:53*
%MOMM*%
%LPD*%
G01*
G04 APERTURE LIST*
%TA.AperFunction,ComponentPad*%
%ADD10O,1.700000X1.700000*%
%TD*%
%TA.AperFunction,ComponentPad*%
%ADD11R,1.700000X1.700000*%
%TD*%
%TA.AperFunction,ComponentPad*%
%ADD12C,1.400000*%
%TD*%
%TA.AperFunction,ComponentPad*%
%ADD13C,2.200000*%
%TD*%
%TA.AperFunction,ComponentPad*%
%ADD14C,1.815000*%
%TD*%
%TA.AperFunction,ComponentPad*%
%ADD15R,1.815000X1.815000*%
%TD*%
%TA.AperFunction,ComponentPad*%
%ADD16C,1.524000*%
%TD*%
%TA.AperFunction,ComponentPad*%
%ADD17C,1.500000*%
%TD*%
%TA.AperFunction,Conductor*%
%ADD18C,0.500000*%
%TD*%
%TA.AperFunction,Conductor*%
%ADD19C,0.750000*%
%TD*%
%TA.AperFunction,Conductor*%
%ADD20C,0.300000*%
%TD*%
G04 APERTURE END LIST*
D10*
%TO.P,J2,7,Pin_7*%
%TO.N,/LED4*%
X158042500Y-80610000D03*
%TO.P,J2,6,Pin_6*%
%TO.N,Net-(J2-Pin_6)*%
X158042500Y-78070000D03*
%TO.P,J2,5,Pin_5*%
%TO.N,Net-(J2-Pin_5)*%
X158042500Y-75530000D03*
%TO.P,J2,4,Pin_4*%
%TO.N,Net-(J2-Pin_4)*%
X158042500Y-72990000D03*
%TO.P,J2,3,Pin_3*%
%TO.N,Net-(J2-Pin_3)*%
X158042500Y-70450000D03*
%TO.P,J2,2,Pin_2*%
%TO.N,GND*%
X158042500Y-67910000D03*
D11*
%TO.P,J2,1,Pin_1*%
%TO.N,Net-(J2-Pin_1)*%
X158042500Y-65370000D03*
%TD*%
D10*
%TO.P,J1,7,Pin_7*%
%TO.N,/LED1*%
X134967500Y-80500000D03*
%TO.P,J1,6,Pin_6*%
%TO.N,/LED2*%
X134967500Y-77960000D03*
%TO.P,J1,5,Pin_5*%
%TO.N,/LED3*%
X134967500Y-75420000D03*
%TO.P,J1,4,Pin_4*%
%TO.N,/Button4*%
X134967500Y-72880000D03*
%TO.P,J1,3,Pin_3*%
%TO.N,/Button2*%
X134967500Y-70340000D03*
%TO.P,J1,2,Pin_2*%
%TO.N,/Button3*%
X134967500Y-67800000D03*
D11*
%TO.P,J1,1,Pin_1*%
%TO.N,/Button1*%
X134967500Y-65260000D03*
%TD*%
D12*
%TO.P,R2,1*%
%TO.N,Net-(D2-PadA)*%
X148137500Y-89335000D03*
%TO.P,R2,2*%
%TO.N,/LED2*%
X153217500Y-89335000D03*
%TD*%
%TO.P,R1,1*%
%TO.N,Net-(D1-PadA)*%
X138642500Y-89335000D03*
%TO.P,R1,2*%
%TO.N,/LED1*%
X143722500Y-89335000D03*
%TD*%
D13*
%TO.P,SW4,1,1*%
%TO.N,/Button4*%
X167182500Y-116820000D03*
%TO.P,SW4,2,2*%
%TO.N,GND*%
X160832500Y-119360000D03*
%TD*%
D12*
%TO.P,R3,1*%
%TO.N,Net-(D3-PadA)*%
X157637500Y-89335000D03*
%TO.P,R3,2*%
%TO.N,/LED3*%
X162717500Y-89335000D03*
%TD*%
D14*
%TO.P,D4,A*%
%TO.N,Net-(D4-PadA)*%
X171682500Y-79325106D03*
D15*
%TO.P,D4,C*%
%TO.N,GND*%
X169142500Y-79325106D03*
%TD*%
D12*
%TO.P,R4,1*%
%TO.N,Net-(D4-PadA)*%
X167127500Y-89335000D03*
%TO.P,R4,2*%
%TO.N,/LED4*%
X172207500Y-89335000D03*
%TD*%
D16*
%TO.P,XIAO-RP2040,1,GPIO26/ADC0/A0*%
%TO.N,/Button1*%
X138892500Y-65360000D03*
%TO.P,XIAO-RP2040,2,GPIO27/ADC1/A1*%
%TO.N,/Button3*%
X138892500Y-67900000D03*
%TO.P,XIAO-RP2040,3,GPIO28/ADC2/A2*%
%TO.N,/Button2*%
X138892500Y-70440000D03*
%TO.P,XIAO-RP2040,4,GPIO29/ADC3/A3*%
%TO.N,/Button4*%
X138892500Y-72980000D03*
%TO.P,XIAO-RP2040,5,GPIO6/SDA*%
%TO.N,/LED3*%
X138892500Y-75520000D03*
%TO.P,XIAO-RP2040,6,GPIO7/SCL*%
%TO.N,/LED2*%
X138892500Y-78060000D03*
%TO.P,XIAO-RP2040,7,GPIO0/TX*%
%TO.N,/LED1*%
X138892500Y-80600000D03*
%TO.P,XIAO-RP2040,8,GPIO1/RX*%
%TO.N,/LED4*%
X154132500Y-80600000D03*
%TO.P,XIAO-RP2040,9,GPIO2/SCK*%
%TO.N,Net-(J2-Pin_6)*%
X154132500Y-78060000D03*
%TO.P,XIAO-RP2040,10,GPIO4/MISO*%
%TO.N,Net-(J2-Pin_5)*%
X154132500Y-75520000D03*
%TO.P,XIAO-RP2040,11,GPIO3/MOSI*%
%TO.N,Net-(J2-Pin_4)*%
X154132500Y-72980000D03*
%TO.P,XIAO-RP2040,12,3V3*%
%TO.N,Net-(J2-Pin_3)*%
X154132500Y-70440000D03*
%TO.P,XIAO-RP2040,13,GND*%
%TO.N,GND*%
X154132500Y-67900000D03*
%TO.P,XIAO-RP2040,14,VBUS*%
%TO.N,Net-(J2-Pin_1)*%
X154132500Y-65360000D03*
%TD*%
D15*
%TO.P,D1,C*%
%TO.N,GND*%
X164389573Y-79300000D03*
D14*
%TO.P,D1,A*%
%TO.N,Net-(D1-PadA)*%
X161849573Y-79300000D03*
%TD*%
%TO.P,D2,A*%
%TO.N,Net-(D2-PadA)*%
X161850000Y-71894894D03*
D15*
%TO.P,D2,C*%
%TO.N,GND*%
X164390000Y-71894894D03*
%TD*%
D13*
%TO.P,SW2,1,1*%
%TO.N,/Button2*%
X167182500Y-97820000D03*
%TO.P,SW2,2,2*%
%TO.N,GND*%
X160832500Y-100360000D03*
%TD*%
D17*
%TO.P,J3,1,Pin_1*%
%TO.N,GND*%
X166650000Y-67850000D03*
%TD*%
D13*
%TO.P,SW1,1,1*%
%TO.N,/Button1*%
X147992500Y-97820000D03*
%TO.P,SW1,2,2*%
%TO.N,GND*%
X141642500Y-100360000D03*
%TD*%
D14*
%TO.P,D3,A*%
%TO.N,Net-(D3-PadA)*%
X171682500Y-71860000D03*
D15*
%TO.P,D3,C*%
%TO.N,GND*%
X169142500Y-71860000D03*
%TD*%
D13*
%TO.P,SW3,1,1*%
%TO.N,/Button3*%
X147992500Y-116820000D03*
%TO.P,SW3,2,2*%
%TO.N,GND*%
X141642500Y-119360000D03*
%TD*%
D18*
%TO.N,GND*%
X164389573Y-71895321D02*
X164390000Y-71894894D01*
X164389573Y-79300000D02*
X164389573Y-71895321D01*
X169117394Y-79300000D02*
X169142500Y-79325106D01*
X164389573Y-79300000D02*
X169117394Y-79300000D01*
X169107606Y-71894894D02*
X169142500Y-71860000D01*
X164390000Y-71894894D02*
X169107606Y-71894894D01*
X164390000Y-70110000D02*
X166650000Y-67850000D01*
X164390000Y-71894894D02*
X164390000Y-70110000D01*
X169142500Y-79325106D02*
X169142500Y-71860000D01*
X169142500Y-70342500D02*
X166650000Y-67850000D01*
X169142500Y-71860000D02*
X169142500Y-70342500D01*
D19*
X158032500Y-67900000D02*
X158042500Y-67910000D01*
X166650000Y-67850000D02*
X158102500Y-67850000D01*
X154132500Y-67900000D02*
X158032500Y-67900000D01*
X158102500Y-67850000D02*
X158042500Y-67910000D01*
%TO.N,/LED1*%
X134967500Y-80500000D02*
X138792500Y-80500000D01*
X138792500Y-80500000D02*
X138892500Y-80600000D01*
D20*
X138892500Y-80600000D02*
X143722500Y-85430000D01*
X143722500Y-89335000D02*
X143722500Y-85430000D01*
D19*
%TO.N,/LED2*%
X134967500Y-77960000D02*
X138792500Y-77960000D01*
D20*
X152117500Y-89335000D02*
X140842500Y-78060000D01*
X140842500Y-78060000D02*
X138892500Y-78060000D01*
D19*
X138792500Y-77960000D02*
X138892500Y-78060000D01*
D20*
X153217500Y-89335000D02*
X152117500Y-89335000D01*
%TO.N,/LED3*%
X162717500Y-89335000D02*
X159792500Y-86410000D01*
D19*
X134967500Y-75420000D02*
X138792500Y-75420000D01*
X138792500Y-75420000D02*
X138892500Y-75520000D01*
D20*
X151192500Y-86410000D02*
X140302500Y-75520000D01*
X159792500Y-86410000D02*
X151192500Y-86410000D01*
X140302500Y-75520000D02*
X138892500Y-75520000D01*
D19*
%TO.N,/LED4*%
X158032500Y-80600000D02*
X158042500Y-80610000D01*
D20*
X156892500Y-83360000D02*
X154132500Y-80600000D01*
X166232500Y-83360000D02*
X156892500Y-83360000D01*
X172207500Y-89335000D02*
X166232500Y-83360000D01*
D19*
X154132500Y-80600000D02*
X158032500Y-80600000D01*
%TO.N,/Button1*%
X134967500Y-65260000D02*
X138792500Y-65260000D01*
X138792500Y-65260000D02*
X138892500Y-65360000D01*
%TO.N,/Button2*%
X134967500Y-70340000D02*
X138792500Y-70340000D01*
D20*
X169667500Y-89260000D02*
X164717500Y-84310000D01*
X164717500Y-84310000D02*
X152762500Y-84310000D01*
D19*
X138792500Y-70340000D02*
X138892500Y-70440000D01*
D20*
X169667500Y-95335000D02*
X169667500Y-89260000D01*
X152762500Y-84310000D02*
X138892500Y-70440000D01*
X167182500Y-97820000D02*
X169667500Y-95335000D01*
D19*
%TO.N,/Button3*%
X138792500Y-67800000D02*
X138892500Y-67900000D01*
X134967500Y-67800000D02*
X138792500Y-67800000D01*
D20*
%TO.N,/Button4*%
X162142500Y-85410000D02*
X152142500Y-85410000D01*
D19*
X138792500Y-72880000D02*
X138892500Y-72980000D01*
D20*
X167182500Y-116820000D02*
X157367500Y-107005000D01*
X152142500Y-85410000D02*
X139712500Y-72980000D01*
X164967500Y-90385000D02*
X164967500Y-88235000D01*
X157367500Y-107005000D02*
X157367500Y-97985000D01*
X139712500Y-72980000D02*
X138892500Y-72980000D01*
X164967500Y-88235000D02*
X162142500Y-85410000D01*
X157367500Y-97985000D02*
X164967500Y-90385000D01*
D19*
X134967500Y-72880000D02*
X138792500Y-72880000D01*
%TO.N,Net-(J2-Pin_5)*%
X158032500Y-75520000D02*
X158042500Y-75530000D01*
X154132500Y-75520000D02*
X158032500Y-75520000D01*
%TO.N,Net-(J2-Pin_4)*%
X154132500Y-72980000D02*
X158032500Y-72980000D01*
X158032500Y-72980000D02*
X158042500Y-72990000D01*
%TO.N,Net-(J2-Pin_3)*%
X158032500Y-70440000D02*
X158042500Y-70450000D01*
X154132500Y-70440000D02*
X158032500Y-70440000D01*
%TO.N,Net-(J2-Pin_1)*%
X158032500Y-65360000D02*
X158042500Y-65370000D01*
X154132500Y-65360000D02*
X158032500Y-65360000D01*
%TO.N,Net-(J2-Pin_6)*%
X158032500Y-78060000D02*
X158042500Y-78070000D01*
X154132500Y-78060000D02*
X158032500Y-78060000D01*
%TD*%
%TA.AperFunction,Conductor*%
%TO.N,GND*%
G36*
X156645598Y-66255185D02*
G01*
X156691353Y-66307989D01*
X156695562Y-66320265D01*
X156695698Y-66320215D01*
X156748702Y-66462328D01*
X156748706Y-66462335D01*
X156834952Y-66577544D01*
X156834955Y-66577547D01*
X156950164Y-66663793D01*
X156950171Y-66663797D01*
X157012402Y-66687007D01*
X157082098Y-66713002D01*
X157138031Y-66754873D01*
X157162449Y-66820337D01*
X157147598Y-66888610D01*
X157126447Y-66916865D01*
X157012771Y-67030541D01*
X156887879Y-67202442D01*
X156791404Y-67391782D01*
X156725742Y-67593870D01*
X156725742Y-67593873D01*
X156715269Y-67660000D01*
X157609488Y-67660000D01*
X157576575Y-67717007D01*
X157542500Y-67844174D01*
X157542500Y-67975826D01*
X157576575Y-68102993D01*
X157609488Y-68160000D01*
X156715269Y-68160000D01*
X156725742Y-68226126D01*
X156725742Y-68226129D01*
X156791404Y-68428217D01*
X156887879Y-68617557D01*
X157012772Y-68789459D01*
X157012776Y-68789464D01*
X157163035Y-68939723D01*
X157163040Y-68939727D01*
X157334944Y-69064622D01*
X157343995Y-69069234D01*
X157394792Y-69117208D01*
X157411587Y-69185029D01*
X157389050Y-69251164D01*
X157343999Y-69290202D01*
X157334682Y-69294949D01*
X157162713Y-69419890D01*
X157162709Y-69419894D01*
X157054423Y-69528181D01*
X156993100Y-69561666D01*
X156966742Y-69564500D01*
X155093807Y-69564500D01*
X155026768Y-69544815D01*
X155006126Y-69528181D01*
X154954966Y-69477021D01*
X154954964Y-69477019D01*
X154794194Y-69360213D01*
X154637167Y-69280203D01*
X154586372Y-69232229D01*
X154569577Y-69164408D01*
X154592114Y-69098273D01*
X154637169Y-69059234D01*
X154793922Y-68979364D01*
X154831216Y-68952268D01*
X154216595Y-68337647D01*
X154304071Y-68314208D01*
X154405430Y-68255689D01*
X154488189Y-68172930D01*
X154546708Y-68071571D01*
X154570147Y-67984094D01*
X155184768Y-68598715D01*
X155211862Y-68561425D01*
X155302042Y-68384437D01*
X155363424Y-68195523D01*
X155363424Y-68195520D01*
X155394500Y-67999321D01*
X155394500Y-67800678D01*
X155363424Y-67604479D01*
X155363424Y-67604476D01*
X155302042Y-67415562D01*
X155211858Y-67238567D01*
X155184768Y-67201283D01*
X154570147Y-67815904D01*
X154546708Y-67728429D01*
X154488189Y-67627070D01*
X154405430Y-67544311D01*
X154304071Y-67485792D01*
X154216594Y-67462352D01*
X154831216Y-66847731D01*
X154831215Y-66847730D01*
X154793932Y-66820641D01*
X154637168Y-66740765D01*
X154586372Y-66692790D01*
X154569577Y-66624969D01*
X154592115Y-66558834D01*
X154637167Y-66519796D01*
X154794194Y-66439787D01*
X154954964Y-66322981D01*
X155006126Y-66271819D01*
X155067449Y-66238334D01*
X155093807Y-66235500D01*
X156578559Y-66235500D01*
X156645598Y-66255185D01*
G37*
%TD.AperFunction*%
%TA.AperFunction,Conductor*%
G36*
X174446236Y-61460726D02*
G01*
X174736296Y-61478271D01*
X174751159Y-61480076D01*
X175033298Y-61531780D01*
X175047835Y-61535363D01*
X175321672Y-61620695D01*
X175335663Y-61626000D01*
X175597243Y-61743727D01*
X175610489Y-61750680D01*
X175855965Y-61899075D01*
X175868276Y-61907573D01*
X176094073Y-62084473D01*
X176105281Y-62094403D01*
X176308096Y-62297218D01*
X176318026Y-62308426D01*
X176437981Y-62461538D01*
X176494922Y-62534217D01*
X176503426Y-62546537D01*
X176536448Y-62601162D01*
X176651816Y-62792004D01*
X176658775Y-62805263D01*
X176776497Y-63066831D01*
X176781806Y-63080832D01*
X176867135Y-63354663D01*
X176870719Y-63369201D01*
X176922423Y-63651340D01*
X176924228Y-63666205D01*
X176941774Y-63956263D01*
X176942000Y-63963750D01*
X176942000Y-131756249D01*
X176941774Y-131763736D01*
X176924228Y-132053794D01*
X176922423Y-132068659D01*
X176870719Y-132350798D01*
X176867135Y-132365336D01*
X176781806Y-132639167D01*
X176776497Y-132653168D01*
X176658775Y-132914736D01*
X176651816Y-132927995D01*
X176503428Y-133173459D01*
X176494922Y-133185782D01*
X176318026Y-133411573D01*
X176308096Y-133422781D01*
X176105281Y-133625596D01*
X176094073Y-133635526D01*
X175868282Y-133812422D01*
X175855959Y-133820928D01*
X175610495Y-133969316D01*
X175597236Y-133976275D01*
X175335668Y-134093997D01*
X175321667Y-134099306D01*
X175047836Y-134184635D01*
X175033298Y-134188219D01*
X174751159Y-134239923D01*
X174736294Y-134241728D01*
X174446236Y-134259274D01*
X174438749Y-134259500D01*
X135676251Y-134259500D01*
X135668764Y-134259274D01*
X135378705Y-134241728D01*
X135363840Y-134239923D01*
X135081701Y-134188219D01*
X135067163Y-134184635D01*
X134793332Y-134099306D01*
X134779331Y-134093997D01*
X134517763Y-133976275D01*
X134504504Y-133969316D01*
X134259040Y-133820928D01*
X134246717Y-133812422D01*
X134020926Y-133635526D01*
X134009718Y-133625596D01*
X133806903Y-133422781D01*
X133796973Y-133411573D01*
X133620073Y-133185776D01*
X133611575Y-133173465D01*
X133463180Y-132927989D01*
X133456227Y-132914743D01*
X133338500Y-132653163D01*
X133333193Y-132639167D01*
X133247864Y-132365336D01*
X133244280Y-132350798D01*
X133192576Y-132068659D01*
X133190771Y-132053794D01*
X133173226Y-131763736D01*
X133173000Y-131756249D01*
X133173000Y-121813389D01*
X139272000Y-121813389D01*
X139272000Y-121986611D01*
X139299098Y-122157701D01*
X139352627Y-122322445D01*
X139431268Y-122476788D01*
X139533086Y-122616928D01*
X139655572Y-122739414D01*
X139795712Y-122841232D01*
X139950055Y-122919873D01*
X140114799Y-122973402D01*
X140285889Y-123000500D01*
X140285890Y-123000500D01*
X140459110Y-123000500D01*
X140459111Y-123000500D01*
X140630201Y-122973402D01*
X140794945Y-122919873D01*
X140949288Y-122841232D01*
X141089428Y-122739414D01*
X141211914Y-122616928D01*
X141313732Y-122476788D01*
X141392373Y-122322445D01*
X141445902Y-122157701D01*
X141473000Y-121986611D01*
X141473000Y-121813389D01*
X141463354Y-121752486D01*
X143202000Y-121752486D01*
X143202000Y-122047513D01*
X143234071Y-122291113D01*
X143240507Y-122339993D01*
X143314712Y-122616930D01*
X143316861Y-122624951D01*
X143316864Y-122624961D01*
X143429754Y-122897500D01*
X143429758Y-122897510D01*
X143577261Y-123152993D01*
X143756852Y-123387040D01*
X143756858Y-123387047D01*
X143965452Y-123595641D01*
X143965459Y-123595647D01*
X144199506Y-123775238D01*
X144454989Y-123922741D01*
X144454990Y-123922741D01*
X144454993Y-123922743D01*
X144727548Y-124035639D01*
X145012507Y-124111993D01*
X145304994Y-124150500D01*
X145305001Y-124150500D01*
X145599999Y-124150500D01*
X145600006Y-124150500D01*
X145892493Y-124111993D01*
X146177452Y-124035639D01*
X146450007Y-123922743D01*
X146705494Y-123775238D01*
X146939542Y-123595646D01*
X147148146Y-123387042D01*
X147327738Y-123152994D01*
X147475243Y-122897507D01*
X147588139Y-122624952D01*
X147664493Y-122339993D01*
X147703000Y-122047506D01*
X147703000Y-121813389D01*
X149432000Y-121813389D01*
X149432000Y-121986611D01*
X149459098Y-122157701D01*
X149512627Y-122322445D01*
X149591268Y-122476788D01*
X149693086Y-122616928D01*
X149815572Y-122739414D01*
X149955712Y-122841232D01*
X150110055Y-122919873D01*
X150274799Y-122973402D01*
X150445889Y-123000500D01*
X150445890Y-123000500D01*
X150619110Y-123000500D01*
X150619111Y-123000500D01*
X150790201Y-122973402D01*
X150954945Y-122919873D01*
X151109288Y-122841232D01*
X151249428Y-122739414D01*
X151371914Y-122616928D01*
X151473732Y-122476788D01*
X151552373Y-122322445D01*
X151605902Y-122157701D01*
X151633000Y-121986611D01*
X151633000Y-121813389D01*
X158462000Y-121813389D01*
X158462000Y-121986611D01*
X158489098Y-122157701D01*
X158542627Y-122322445D01*
X158621268Y-122476788D01*
X158723086Y-122616928D01*
X158845572Y-122739414D01*
X158985712Y-122841232D01*
X159140055Y-122919873D01*
X159304799Y-122973402D01*
X159475889Y-123000500D01*
X159475890Y-123000500D01*
X159649110Y-123000500D01*
X159649111Y-123000500D01*
X159820201Y-122973402D01*
X159984945Y-122919873D01*
X160139288Y-122841232D01*
X160279428Y-122739414D01*
X160401914Y-122616928D01*
X160503732Y-122476788D01*
X160582373Y-122322445D01*
X160635902Y-122157701D01*
X160663000Y-121986611D01*
X160663000Y-121813389D01*
X160653354Y-121752486D01*
X162392000Y-121752486D01*
X162392000Y-122047513D01*
X162424071Y-122291113D01*
X162430507Y-122339993D01*
X162504712Y-122616930D01*
X162506861Y-122624951D01*
X162506864Y-122624961D01*
X162619754Y-122897500D01*
X162619758Y-122897510D01*
X162767261Y-123152993D01*
X162946852Y-123387040D01*
X162946858Y-123387047D01*
X163155452Y-123595641D01*
X163155459Y-123595647D01*
X163389506Y-123775238D01*
X163644989Y-123922741D01*
X163644990Y-123922741D01*
X163644993Y-123922743D01*
X163917548Y-124035639D01*
X164202507Y-124111993D01*
X164494994Y-124150500D01*
X164495001Y-124150500D01*
X164789999Y-124150500D01*
X164790006Y-124150500D01*
X165082493Y-124111993D01*
X165367452Y-124035639D01*
X165640007Y-123922743D01*
X165895494Y-123775238D01*
X166129542Y-123595646D01*
X166338146Y-123387042D01*
X166517738Y-123152994D01*
X166665243Y-122897507D01*
X166778139Y-122624952D01*
X166854493Y-122339993D01*
X166893000Y-122047506D01*
X166893000Y-121813389D01*
X168622000Y-121813389D01*
X168622000Y-121986611D01*
X168649098Y-122157701D01*
X168702627Y-122322445D01*
X168781268Y-122476788D01*
X168883086Y-122616928D01*
X169005572Y-122739414D01*
X169145712Y-122841232D01*
X169300055Y-122919873D01*
X169464799Y-122973402D01*
X169635889Y-123000500D01*
X169635890Y-123000500D01*
X169809110Y-123000500D01*
X169809111Y-123000500D01*
X169980201Y-122973402D01*
X170144945Y-122919873D01*
X170299288Y-122841232D01*
X170439428Y-122739414D01*
X170561914Y-122616928D01*
X170663732Y-122476788D01*
X170742373Y-122322445D01*
X170795902Y-122157701D01*
X170823000Y-121986611D01*
X170823000Y-121813389D01*
X170795902Y-121642299D01*
X170742373Y-121477555D01*
X170663732Y-121323212D01*
X170561914Y-121183072D01*
X170439428Y-121060586D01*
X170299288Y-120958768D01*
X170144945Y-120880127D01*
X169980201Y-120826598D01*
X169980199Y-120826597D01*
X169980198Y-120826597D01*
X169848771Y-120805781D01*
X169809111Y-120799500D01*
X169635889Y-120799500D01*
X169596228Y-120805781D01*
X169464802Y-120826597D01*
X169300052Y-120880128D01*
X169145711Y-120958768D01*
X169089615Y-120999525D01*
X169005572Y-121060586D01*
X169005570Y-121060588D01*
X169005569Y-121060588D01*
X168883088Y-121183069D01*
X168883088Y-121183070D01*
X168883086Y-121183072D01*
X168839359Y-121243256D01*
X168781268Y-121323211D01*
X168702628Y-121477552D01*
X168649097Y-121642302D01*
X168622000Y-121813389D01*
X166893000Y-121813389D01*
X166893000Y-121752494D01*
X166854493Y-121460007D01*
X166778139Y-121175048D01*
X166665243Y-120902493D01*
X166615104Y-120815650D01*
X166517738Y-120647006D01*
X166338147Y-120412959D01*
X166338141Y-120412952D01*
X166129547Y-120204358D01*
X166129540Y-120204352D01*
X165895493Y-120024761D01*
X165640010Y-119877258D01*
X165640000Y-119877254D01*
X165367461Y-119764364D01*
X165367454Y-119764362D01*
X165367452Y-119764361D01*
X165082493Y-119688007D01*
X165033613Y-119681571D01*
X164790013Y-119649500D01*
X164790006Y-119649500D01*
X164494994Y-119649500D01*
X164494986Y-119649500D01*
X164216585Y-119686153D01*
X164202507Y-119688007D01*
X164028361Y-119734669D01*
X163917548Y-119764361D01*
X163917538Y-119764364D01*
X163644999Y-119877254D01*
X163644989Y-119877258D01*
X163389506Y-120024761D01*
X163155459Y-120204352D01*
X163155452Y-120204358D01*
X162946858Y-120412952D01*
X162946852Y-120412959D01*
X162767261Y-120647006D01*
X162619758Y-120902489D01*
X162619754Y-120902499D01*
X162506864Y-121175038D01*
X162506861Y-121175048D01*
X162430508Y-121460004D01*
X162430506Y-121460015D01*
X162392000Y-121752486D01*
X160653354Y-121752486D01*
X160635902Y-121642299D01*
X160582373Y-121477555D01*
X160503732Y-121323212D01*
X160401914Y-121183072D01*
X160349382Y-121130540D01*
X160315897Y-121069217D01*
X160320881Y-120999525D01*
X160362753Y-120943592D01*
X160428217Y-120919175D01*
X160456461Y-120920386D01*
X160706572Y-120960000D01*
X160958428Y-120960000D01*
X161207169Y-120920602D01*
X161446684Y-120842780D01*
X161671075Y-120728446D01*
X161671081Y-120728442D01*
X161773197Y-120654250D01*
X161773198Y-120654250D01*
X161156525Y-120037578D01*
X161187758Y-120024641D01*
X161310597Y-119942563D01*
X161415063Y-119838097D01*
X161497141Y-119715258D01*
X161510078Y-119684025D01*
X162126750Y-120300698D01*
X162126750Y-120300697D01*
X162200942Y-120198581D01*
X162200946Y-120198575D01*
X162315280Y-119974184D01*
X162393102Y-119734669D01*
X162432500Y-119485928D01*
X162432500Y-119234071D01*
X162393102Y-118985330D01*
X162315280Y-118745815D01*
X162200942Y-118521416D01*
X162126750Y-118419301D01*
X162126750Y-118419300D01*
X161510077Y-119035973D01*
X161497141Y-119004742D01*
X161415063Y-118881903D01*
X161310597Y-118777437D01*
X161187758Y-118695359D01*
X161156524Y-118682421D01*
X161773198Y-118065748D01*
X161671083Y-117991557D01*
X161446684Y-117877219D01*
X161207169Y-117799397D01*
X160958428Y-117760000D01*
X160706572Y-117760000D01*
X160457830Y-117799397D01*
X160218315Y-117877219D01*
X159993913Y-117991559D01*
X159891801Y-118065747D01*
X159891800Y-118065748D01*
X160508474Y-118682421D01*
X160477242Y-118695359D01*
X160354403Y-118777437D01*
X160249937Y-118881903D01*
X160167859Y-119004742D01*
X160154922Y-119035974D01*
X159538248Y-118419300D01*
X159538247Y-118419301D01*
X159464059Y-118521413D01*
X159349719Y-118745815D01*
X159271897Y-118985330D01*
X159232500Y-119234071D01*
X159232500Y-119485928D01*
X159271897Y-119734669D01*
X159349719Y-119974184D01*
X159464057Y-120198583D01*
X159538248Y-120300697D01*
X159538248Y-120300698D01*
X160154921Y-119684024D01*
X160167859Y-119715258D01*
X160249937Y-119838097D01*
X160354403Y-119942563D01*
X160477242Y-120024641D01*
X160508474Y-120037577D01*
X159891800Y-120654250D01*
X159894098Y-120683449D01*
X159879733Y-120751827D01*
X159830681Y-120801583D01*
X159762516Y-120816921D01*
X159751083Y-120815650D01*
X159649111Y-120799500D01*
X159475889Y-120799500D01*
X159436228Y-120805781D01*
X159304802Y-120826597D01*
X159140052Y-120880128D01*
X158985711Y-120958768D01*
X158929615Y-120999525D01*
X158845572Y-121060586D01*
X158845570Y-121060588D01*
X158845569Y-121060588D01*
X158723088Y-121183069D01*
X158723088Y-121183070D01*
X158723086Y-121183072D01*
X158679359Y-121243256D01*
X158621268Y-121323211D01*
X158542628Y-121477552D01*
X158489097Y-121642302D01*
X158462000Y-121813389D01*
X151633000Y-121813389D01*
X151605902Y-121642299D01*
X151552373Y-121477555D01*
X151473732Y-121323212D01*
X151371914Y-121183072D01*
X151249428Y-121060586D01*
X151109288Y-120958768D01*
X150954945Y-120880127D01*
X150790201Y-120826598D01*
X150790199Y-120826597D01*
X150790198Y-120826597D01*
X150658771Y-120805781D01*
X150619111Y-120799500D01*
X150445889Y-120799500D01*
X150406228Y-120805781D01*
X150274802Y-120826597D01*
X150110052Y-120880128D01*
X149955711Y-120958768D01*
X149899615Y-120999525D01*
X149815572Y-121060586D01*
X149815570Y-121060588D01*
X149815569Y-121060588D01*
X149693088Y-121183069D01*
X149693088Y-121183070D01*
X149693086Y-121183072D01*
X149649359Y-121243256D01*
X149591268Y-121323211D01*
X149512628Y-121477552D01*
X149459097Y-121642302D01*
X149432000Y-121813389D01*
X147703000Y-121813389D01*
X147703000Y-121752494D01*
X147664493Y-121460007D01*
X147588139Y-121175048D01*
X147475243Y-120902493D01*
X147425104Y-120815650D01*
X147327738Y-120647006D01*
X147148147Y-120412959D01*
X147148141Y-120412952D01*
X146939547Y-120204358D01*
X146939540Y-120204352D01*
X146705493Y-120024761D01*
X146450010Y-119877258D01*
X146450000Y-119877254D01*
X146177461Y-119764364D01*
X146177454Y-119764362D01*
X146177452Y-119764361D01*
X145892493Y-119688007D01*
X145843613Y-119681571D01*
X145600013Y-119649500D01*
X145600006Y-119649500D01*
X145304994Y-119649500D01*
X145304986Y-119649500D01*
X145026585Y-119686153D01*
X145012507Y-119688007D01*
X144838361Y-119734669D01*
X144727548Y-119764361D01*
X144727538Y-119764364D01*
X144454999Y-119877254D01*
X144454989Y-119877258D01*
X144199506Y-120024761D01*
X143965459Y-120204352D01*
X143965452Y-120204358D01*
X143756858Y-120412952D01*
X143756852Y-120412959D01*
X143577261Y-120647006D01*
X143429758Y-120902489D01*
X143429754Y-120902499D01*
X143316864Y-121175038D01*
X143316861Y-121175048D01*
X143240508Y-121460004D01*
X143240506Y-121460015D01*
X143202000Y-121752486D01*
X141463354Y-121752486D01*
X141445902Y-121642299D01*
X141392373Y-121477555D01*
X141313732Y-121323212D01*
X141211914Y-121183072D01*
X141159382Y-121130540D01*
X141125897Y-121069217D01*
X141130881Y-120999525D01*
X141172753Y-120943592D01*
X141238217Y-120919175D01*
X141266461Y-120920386D01*
X141516572Y-120960000D01*
X141768428Y-120960000D01*
X142017169Y-120920602D01*
X142256684Y-120842780D01*
X142481075Y-120728446D01*
X142481081Y-120728442D01*
X142583197Y-120654250D01*
X142583198Y-120654250D01*
X141966525Y-120037578D01*
X141997758Y-120024641D01*
X142120597Y-119942563D01*
X142225063Y-119838097D01*
X142307141Y-119715258D01*
X142320078Y-119684025D01*
X142936750Y-120300698D01*
X142936750Y-120300697D01*
X143010942Y-120198581D01*
X143010946Y-120198575D01*
X143125280Y-119974184D01*
X143203102Y-119734669D01*
X143242500Y-119485928D01*
X143242500Y-119234071D01*
X143203102Y-118985330D01*
X143125280Y-118745815D01*
X143010942Y-118521416D01*
X142936750Y-118419301D01*
X142936750Y-118419300D01*
X142320077Y-119035973D01*
X142307141Y-119004742D01*
X142225063Y-118881903D01*
X142120597Y-118777437D01*
X141997758Y-118695359D01*
X141966524Y-118682421D01*
X142583198Y-118065748D01*
X142481083Y-117991557D01*
X142256684Y-117877219D01*
X142017169Y-117799397D01*
X141768428Y-117760000D01*
X141516572Y-117760000D01*
X141267830Y-117799397D01*
X141028315Y-117877219D01*
X140803913Y-117991559D01*
X140701801Y-118065747D01*
X140701800Y-118065748D01*
X141318474Y-118682421D01*
X141287242Y-118695359D01*
X141164403Y-118777437D01*
X141059937Y-118881903D01*
X140977859Y-119004742D01*
X140964921Y-119035974D01*
X140348248Y-118419300D01*
X140348247Y-118419301D01*
X140274059Y-118521413D01*
X140159719Y-118745815D01*
X140081897Y-118985330D01*
X140042500Y-119234071D01*
X140042500Y-119485928D01*
X140081897Y-119734669D01*
X140159719Y-119974184D01*
X140274057Y-120198583D01*
X140348248Y-120300697D01*
X140348248Y-120300698D01*
X140964921Y-119684024D01*
X140977859Y-119715258D01*
X141059937Y-119838097D01*
X141164403Y-119942563D01*
X141287242Y-120024641D01*
X141318474Y-120037577D01*
X140701800Y-120654250D01*
X140704098Y-120683449D01*
X140689733Y-120751827D01*
X140640681Y-120801583D01*
X140572516Y-120816921D01*
X140561083Y-120815650D01*
X140459111Y-120799500D01*
X140285889Y-120799500D01*
X140246228Y-120805781D01*
X140114802Y-120826597D01*
X139950052Y-120880128D01*
X139795711Y-120958768D01*
X139739615Y-120999525D01*
X139655572Y-121060586D01*
X139655570Y-121060588D01*
X139655569Y-121060588D01*
X139533088Y-121183069D01*
X139533088Y-121183070D01*
X139533086Y-121183072D01*
X139489359Y-121243256D01*
X139431268Y-121323211D01*
X139352628Y-121477552D01*
X139299097Y-121642302D01*
X139272000Y-121813389D01*
X133173000Y-121813389D01*
X133173000Y-116694038D01*
X146392000Y-116694038D01*
X146392000Y-116945961D01*
X146431410Y-117194785D01*
X146509260Y-117434383D01*
X146623632Y-117658848D01*
X146771701Y-117862649D01*
X146771705Y-117862654D01*
X146949845Y-118040794D01*
X146949850Y-118040798D01*
X147127617Y-118169952D01*
X147153655Y-118188870D01*
X147296684Y-118261747D01*
X147378116Y-118303239D01*
X147378118Y-118303239D01*
X147378121Y-118303241D01*
X147617715Y-118381090D01*
X147866538Y-118420500D01*
X147866539Y-118420500D01*
X148118461Y-118420500D01*
X148118462Y-118420500D01*
X148367285Y-118381090D01*
X148606879Y-118303241D01*
X148831345Y-118188870D01*
X149035156Y-118040793D01*
X149213293Y-117862656D01*
X149361370Y-117658845D01*
X149475741Y-117434379D01*
X149553590Y-117194785D01*
X149593000Y-116945962D01*
X149593000Y-116694038D01*
X149553590Y-116445215D01*
X149475741Y-116205621D01*
X149475739Y-116205618D01*
X149475739Y-116205616D01*
X149434247Y-116124184D01*
X149361370Y-115981155D01*
X149342452Y-115955117D01*
X149213298Y-115777350D01*
X149213294Y-115777345D01*
X149035154Y-115599205D01*
X149035149Y-115599201D01*
X148831348Y-115451132D01*
X148831347Y-115451131D01*
X148831345Y-115451130D01*
X148761247Y-115415413D01*
X148606883Y-115336760D01*
X148367285Y-115258910D01*
X148118462Y-115219500D01*
X147866538Y-115219500D01*
X147742126Y-115239205D01*
X147617714Y-115258910D01*
X147378116Y-115336760D01*
X147153651Y-115451132D01*
X146949850Y-115599201D01*
X146949845Y-115599205D01*
X146771705Y-115777345D01*
X146771701Y-115777350D01*
X146623632Y-115981151D01*
X146509260Y-116205616D01*
X146431410Y-116445214D01*
X146392000Y-116694038D01*
X133173000Y-116694038D01*
X133173000Y-102813389D01*
X139272000Y-102813389D01*
X139272000Y-102986611D01*
X139299098Y-103157701D01*
X139352627Y-103322445D01*
X139431268Y-103476788D01*
X139533086Y-103616928D01*
X139655572Y-103739414D01*
X139795712Y-103841232D01*
X139950055Y-103919873D01*
X140114799Y-103973402D01*
X140285889Y-104000500D01*
X140285890Y-104000500D01*
X140459110Y-104000500D01*
X140459111Y-104000500D01*
X140630201Y-103973402D01*
X140794945Y-103919873D01*
X140949288Y-103841232D01*
X141089428Y-103739414D01*
X141211914Y-103616928D01*
X141313732Y-103476788D01*
X141392373Y-103322445D01*
X141445902Y-103157701D01*
X141473000Y-102986611D01*
X141473000Y-102813389D01*
X141463354Y-102752486D01*
X143202000Y-102752486D01*
X143202000Y-103047513D01*
X143234071Y-103291113D01*
X143240507Y-103339993D01*
X143314712Y-103616930D01*
X143316861Y-103624951D01*
X143316864Y-103624961D01*
X143429754Y-103897500D01*
X143429758Y-103897510D01*
X143577261Y-104152993D01*
X143756852Y-104387040D01*
X143756858Y-104387047D01*
X143965452Y-104595641D01*
X143965459Y-104595647D01*
X144199506Y-104775238D01*
X144454989Y-104922741D01*
X144454990Y-104922741D01*
X144454993Y-104922743D01*
X144727548Y-105035639D01*
X145012507Y-105111993D01*
X145304994Y-105150500D01*
X145305001Y-105150500D01*
X145599999Y-105150500D01*
X145600006Y-105150500D01*
X145892493Y-105111993D01*
X146177452Y-105035639D01*
X146450007Y-104922743D01*
X146705494Y-104775238D01*
X146939542Y-104595646D01*
X147148146Y-104387042D01*
X147327738Y-104152994D01*
X147475243Y-103897507D01*
X147588139Y-103624952D01*
X147664493Y-103339993D01*
X147703000Y-103047506D01*
X147703000Y-102813389D01*
X149432000Y-102813389D01*
X149432000Y-102986611D01*
X149459098Y-103157701D01*
X149512627Y-103322445D01*
X149591268Y-103476788D01*
X149693086Y-103616928D01*
X149815572Y-103739414D01*
X149955712Y-103841232D01*
X150110055Y-103919873D01*
X150274799Y-103973402D01*
X150445889Y-104000500D01*
X150445890Y-104000500D01*
X150619110Y-104000500D01*
X150619111Y-104000500D01*
X150790201Y-103973402D01*
X150954945Y-103919873D01*
X151109288Y-103841232D01*
X151249428Y-103739414D01*
X151371914Y-103616928D01*
X151473732Y-103476788D01*
X151552373Y-103322445D01*
X151605902Y-103157701D01*
X151633000Y-102986611D01*
X151633000Y-102813389D01*
X151605902Y-102642299D01*
X151552373Y-102477555D01*
X151473732Y-102323212D01*
X151371914Y-102183072D01*
X151249428Y-102060586D01*
X151109288Y-101958768D01*
X150954945Y-101880127D01*
X150790201Y-101826598D01*
X150790199Y-101826597D01*
X150790198Y-101826597D01*
X150658771Y-101805781D01*
X150619111Y-101799500D01*
X150445889Y-101799500D01*
X150406228Y-101805781D01*
X150274802Y-101826597D01*
X150110052Y-101880128D01*
X149955711Y-101958768D01*
X149899615Y-101999525D01*
X149815572Y-102060586D01*
X149815570Y-102060588D01*
X149815569Y-102060588D01*
X149693088Y-102183069D01*
X149693088Y-102183070D01*
X149693086Y-102183072D01*
X149649359Y-102243256D01*
X149591268Y-102323211D01*
X149512628Y-102477552D01*
X149459097Y-102642302D01*
X149432000Y-102813389D01*
X147703000Y-102813389D01*
X147703000Y-102752494D01*
X147664493Y-102460007D01*
X147588139Y-102175048D01*
X147475243Y-101902493D01*
X147425104Y-101815650D01*
X147327738Y-101647006D01*
X147148147Y-101412959D01*
X147148141Y-101412952D01*
X146939547Y-101204358D01*
X146939540Y-101204352D01*
X146705493Y-101024761D01*
X146450010Y-100877258D01*
X146450000Y-100877254D01*
X146177461Y-100764364D01*
X146177454Y-100764362D01*
X146177452Y-100764361D01*
X145892493Y-100688007D01*
X145843613Y-100681571D01*
X145600013Y-100649500D01*
X145600006Y-100649500D01*
X145304994Y-100649500D01*
X145304986Y-100649500D01*
X145026585Y-100686153D01*
X145012507Y-100688007D01*
X144838361Y-100734669D01*
X144727548Y-100764361D01*
X144727538Y-100764364D01*
X144454999Y-100877254D01*
X144454989Y-100877258D01*
X144199506Y-101024761D01*
X143965459Y-101204352D01*
X143965452Y-101204358D01*
X143756858Y-101412952D01*
X143756852Y-101412959D01*
X143577261Y-101647006D01*
X143429758Y-101902489D01*
X143429754Y-101902499D01*
X143316864Y-102175038D01*
X143316861Y-102175048D01*
X143240508Y-102460004D01*
X143240506Y-102460015D01*
X143202000Y-102752486D01*
X141463354Y-102752486D01*
X141445902Y-102642299D01*
X141392373Y-102477555D01*
X141313732Y-102323212D01*
X141211914Y-102183072D01*
X141159382Y-102130540D01*
X141125897Y-102069217D01*
X141130881Y-101999525D01*
X141172753Y-101943592D01*
X141238217Y-101919175D01*
X141266461Y-101920386D01*
X141516572Y-101960000D01*
X141768428Y-101960000D01*
X142017169Y-101920602D01*
X142256684Y-101842780D01*
X142481075Y-101728446D01*
X142481081Y-101728442D01*
X142583197Y-101654250D01*
X142583198Y-101654250D01*
X141966525Y-101037578D01*
X141997758Y-101024641D01*
X142120597Y-100942563D01*
X142225063Y-100838097D01*
X142307141Y-100715258D01*
X142320078Y-100684025D01*
X142936750Y-101300698D01*
X142936750Y-101300697D01*
X143010942Y-101198581D01*
X143010946Y-101198575D01*
X143125280Y-100974184D01*
X143203102Y-100734669D01*
X143242500Y-100485928D01*
X143242500Y-100234071D01*
X143203102Y-99985330D01*
X143125280Y-99745815D01*
X143010942Y-99521416D01*
X142936750Y-99419301D01*
X142936750Y-99419300D01*
X142320077Y-100035973D01*
X142307141Y-100004742D01*
X142225063Y-99881903D01*
X142120597Y-99777437D01*
X141997758Y-99695359D01*
X141966524Y-99682421D01*
X142583198Y-99065748D01*
X142481083Y-98991557D01*
X142256684Y-98877219D01*
X142017169Y-98799397D01*
X141768428Y-98760000D01*
X141516572Y-98760000D01*
X141267830Y-98799397D01*
X141028315Y-98877219D01*
X140803913Y-98991559D01*
X140701801Y-99065747D01*
X140701800Y-99065748D01*
X141318474Y-99682421D01*
X141287242Y-99695359D01*
X141164403Y-99777437D01*
X141059937Y-99881903D01*
X140977859Y-100004742D01*
X140964921Y-100035974D01*
X140348248Y-99419300D01*
X140348247Y-99419301D01*
X140274059Y-99521413D01*
X140159719Y-99745815D01*
X140081897Y-99985330D01*
X140042500Y-100234071D01*
X140042500Y-100485928D01*
X140081897Y-100734669D01*
X140159719Y-100974184D01*
X140274057Y-101198583D01*
X140348248Y-101300697D01*
X140348248Y-101300698D01*
X140964921Y-100684024D01*
X140977859Y-100715258D01*
X141059937Y-100838097D01*
X141164403Y-100942563D01*
X141287242Y-101024641D01*
X141318474Y-101037577D01*
X140701800Y-101654250D01*
X140704098Y-101683449D01*
X140689733Y-101751827D01*
X140640681Y-101801583D01*
X140572516Y-101816921D01*
X140561083Y-101815650D01*
X140459111Y-101799500D01*
X140285889Y-101799500D01*
X140246228Y-101805781D01*
X140114802Y-101826597D01*
X139950052Y-101880128D01*
X139795711Y-101958768D01*
X139739615Y-101999525D01*
X139655572Y-102060586D01*
X139655570Y-102060588D01*
X139655569Y-102060588D01*
X139533088Y-102183069D01*
X139533088Y-102183070D01*
X139533086Y-102183072D01*
X139489359Y-102243256D01*
X139431268Y-102323211D01*
X139352628Y-102477552D01*
X139299097Y-102642302D01*
X139272000Y-102813389D01*
X133173000Y-102813389D01*
X133173000Y-97694038D01*
X146392000Y-97694038D01*
X146392000Y-97945961D01*
X146431410Y-98194785D01*
X146509260Y-98434383D01*
X146623632Y-98658848D01*
X146771701Y-98862649D01*
X146771705Y-98862654D01*
X146949845Y-99040794D01*
X146949850Y-99040798D01*
X147127617Y-99169952D01*
X147153655Y-99188870D01*
X147296684Y-99261747D01*
X147378116Y-99303239D01*
X147378118Y-99303239D01*
X147378121Y-99303241D01*
X147617715Y-99381090D01*
X147866538Y-99420500D01*
X147866539Y-99420500D01*
X148118461Y-99420500D01*
X148118462Y-99420500D01*
X148367285Y-99381090D01*
X148606879Y-99303241D01*
X148831345Y-99188870D01*
X149035156Y-99040793D01*
X149213293Y-98862656D01*
X149361370Y-98658845D01*
X149475741Y-98434379D01*
X149553590Y-98194785D01*
X149593000Y-97945962D01*
X149593000Y-97694038D01*
X149553590Y-97445215D01*
X149475741Y-97205621D01*
X149475739Y-97205618D01*
X149475739Y-97205616D01*
X149434247Y-97124184D01*
X149361370Y-96981155D01*
X149342452Y-96955117D01*
X149213298Y-96777350D01*
X149213294Y-96777345D01*
X149035154Y-96599205D01*
X149035149Y-96599201D01*
X148831348Y-96451132D01*
X148831347Y-96451131D01*
X148831345Y-96451130D01*
X148761247Y-96415413D01*
X148606883Y-96336760D01*
X148367285Y-96258910D01*
X148118462Y-96219500D01*
X147866538Y-96219500D01*
X147742126Y-96239205D01*
X147617714Y-96258910D01*
X147378116Y-96336760D01*
X147153651Y-96451132D01*
X146949850Y-96599201D01*
X146949845Y-96599205D01*
X146771705Y-96777345D01*
X146771701Y-96777350D01*
X146623632Y-96981151D01*
X146509260Y-97205616D01*
X146431410Y-97445214D01*
X146392000Y-97694038D01*
X133173000Y-97694038D01*
X133173000Y-89240513D01*
X137442000Y-89240513D01*
X137442000Y-89429486D01*
X137471559Y-89616118D01*
X137529954Y-89795836D01*
X137588871Y-89911466D01*
X137615740Y-89964199D01*
X137726810Y-90117073D01*
X137860427Y-90250690D01*
X138013301Y-90361760D01*
X138092847Y-90402290D01*
X138181663Y-90447545D01*
X138181665Y-90447545D01*
X138181668Y-90447547D01*
X138277997Y-90478846D01*
X138361381Y-90505940D01*
X138548014Y-90535500D01*
X138548019Y-90535500D01*
X138736986Y-90535500D01*
X138923618Y-90505940D01*
X139103332Y-90447547D01*
X139271699Y-90361760D01*
X139424573Y-90250690D01*
X139558190Y-90117073D01*
X139669260Y-89964199D01*
X139755047Y-89795832D01*
X139813440Y-89616118D01*
X139819033Y-89580807D01*
X139843000Y-89429486D01*
X139843000Y-89240513D01*
X139813440Y-89053881D01*
X139755045Y-88874163D01*
X139669259Y-88705800D01*
X139558190Y-88552927D01*
X139424573Y-88419310D01*
X139271699Y-88308240D01*
X139266363Y-88305521D01*
X139103336Y-88222454D01*
X138923618Y-88164059D01*
X138736986Y-88134500D01*
X138736981Y-88134500D01*
X138548019Y-88134500D01*
X138548014Y-88134500D01*
X138361381Y-88164059D01*
X138181663Y-88222454D01*
X138013300Y-88308240D01*
X137926079Y-88371610D01*
X137860427Y-88419310D01*
X137860425Y-88419312D01*
X137860424Y-88419312D01*
X137726812Y-88552924D01*
X137726812Y-88552925D01*
X137726810Y-88552927D01*
X137724717Y-88555808D01*
X137615740Y-88705800D01*
X137529954Y-88874163D01*
X137471559Y-89053881D01*
X137442000Y-89240513D01*
X133173000Y-89240513D01*
X133173000Y-64362135D01*
X133617000Y-64362135D01*
X133617000Y-66157870D01*
X133617001Y-66157876D01*
X133623408Y-66217483D01*
X133673702Y-66352328D01*
X133673706Y-66352335D01*
X133759952Y-66467544D01*
X133759955Y-66467547D01*
X133875164Y-66553793D01*
X133875171Y-66553797D01*
X134006582Y-66602810D01*
X134062516Y-66644681D01*
X134086933Y-66710145D01*
X134072082Y-66778418D01*
X134050931Y-66806673D01*
X133937389Y-66920215D01*
X133812451Y-67092179D01*
X133715944Y-67281585D01*
X133650253Y-67483760D01*
X133617000Y-67693713D01*
X133617000Y-67906286D01*
X133643178Y-68071571D01*
X133650254Y-68116243D01*
X133685958Y-68226129D01*
X133715944Y-68318414D01*
X133812451Y-68507820D01*
X133937390Y-68679786D01*
X134087713Y-68830109D01*
X134259682Y-68955050D01*
X134268446Y-68959516D01*
X134319242Y-69007491D01*
X134336036Y-69075312D01*
X134313498Y-69141447D01*
X134268446Y-69180484D01*
X134259682Y-69184949D01*
X134087713Y-69309890D01*
X133937390Y-69460213D01*
X133812451Y-69632179D01*
X133715944Y-69821585D01*
X133650253Y-70023760D01*
X133617000Y-70233713D01*
X133617000Y-70446286D01*
X133646129Y-70630203D01*
X133650254Y-70656243D01*
X133711626Y-70845127D01*
X133715944Y-70858414D01*
X133812451Y-71047820D01*
X133937390Y-71219786D01*
X134087713Y-71370109D01*
X134259682Y-71495050D01*
X134268446Y-71499516D01*
X134319242Y-71547491D01*
X134336036Y-71615312D01*
X134313498Y-71681447D01*
X134268446Y-71720484D01*
X134259682Y-71724949D01*
X134087713Y-71849890D01*
X133937390Y-72000213D01*
X133812451Y-72172179D01*
X133715944Y-72361585D01*
X133650253Y-72563760D01*
X133617000Y-72773713D01*
X133617000Y-72986286D01*
X133645280Y-73164843D01*
X133650254Y-73196243D01*
X133685995Y-73306243D01*
X133715944Y-73398414D01*
X133812451Y-73587820D01*
X133937390Y-73759786D01*
X134087713Y-73910109D01*
X134259682Y-74035050D01*
X134268446Y-74039516D01*
X134319242Y-74087491D01*
X134336036Y-74155312D01*
X134313498Y-74221447D01*
X134268446Y-74260484D01*
X134259682Y-74264949D01*
X134087713Y-74389890D01*
X133937390Y-74540213D01*
X133812451Y-74712179D01*
X133715944Y-74901585D01*
X133650253Y-75103760D01*
X133617000Y-75313713D01*
X133617000Y-75526287D01*
X133650254Y-75736243D01*
X133685995Y-75846243D01*
X133715944Y-75938414D01*
X133812451Y-76127820D01*
X133937390Y-76299786D01*
X134087713Y-76450109D01*
X134259682Y-76575050D01*
X134268446Y-76579516D01*
X134319242Y-76627491D01*
X134336036Y-76695312D01*
X134313498Y-76761447D01*
X134268446Y-76800484D01*
X134259682Y-76804949D01*
X134087713Y-76929890D01*
X133937390Y-77080213D01*
X133812451Y-77252179D01*
X133715944Y-77441585D01*
X133650253Y-77643760D01*
X133617000Y-77853713D01*
X133617000Y-78066286D01*
X133648804Y-78267092D01*
X133650254Y-78276243D01*
X133685995Y-78386243D01*
X133715944Y-78478414D01*
X133812451Y-78667820D01*
X133937390Y-78839786D01*
X134087713Y-78990109D01*
X134259682Y-79115050D01*
X134268446Y-79119516D01*
X134319242Y-79167491D01*
X134336036Y-79235312D01*
X134313498Y-79301447D01*
X134268446Y-79340484D01*
X134259682Y-79344949D01*
X134087713Y-79469890D01*
X133937390Y-79620213D01*
X133812451Y-79792179D01*
X133715944Y-79981585D01*
X133650253Y-80183760D01*
X133617000Y-80393713D01*
X133617000Y-80606286D01*
X133633030Y-80707499D01*
X133650254Y-80816243D01*
X133685995Y-80926243D01*
X133715944Y-81018414D01*
X133812451Y-81207820D01*
X133937390Y-81379786D01*
X134087713Y-81530109D01*
X134259679Y-81655048D01*
X134259681Y-81655049D01*
X134259684Y-81655051D01*
X134449088Y-81751557D01*
X134651257Y-81817246D01*
X134861213Y-81850500D01*
X134861214Y-81850500D01*
X135073786Y-81850500D01*
X135073787Y-81850500D01*
X135283743Y-81817246D01*
X135485912Y-81751557D01*
X135675316Y-81655051D01*
X135715497Y-81625858D01*
X135847286Y-81530109D01*
X135847288Y-81530106D01*
X135847292Y-81530104D01*
X135965577Y-81411819D01*
X136026900Y-81378334D01*
X136053258Y-81375500D01*
X137832243Y-81375500D01*
X137899282Y-81395185D01*
X137926529Y-81418964D01*
X137929516Y-81422461D01*
X137929519Y-81422464D01*
X138070036Y-81562981D01*
X138230806Y-81679787D01*
X138317649Y-81724035D01*
X138407867Y-81770005D01*
X138407870Y-81770006D01*
X138502366Y-81800709D01*
X138596864Y-81831413D01*
X138793139Y-81862500D01*
X138793140Y-81862500D01*
X138991860Y-81862500D01*
X138991861Y-81862500D01*
X139139399Y-81839132D01*
X139208692Y-81848087D01*
X139246478Y-81873924D01*
X143035681Y-85663127D01*
X143069166Y-85724450D01*
X143072000Y-85750808D01*
X143072000Y-88260534D01*
X143052315Y-88327573D01*
X143020887Y-88360851D01*
X142940427Y-88419309D01*
X142806812Y-88552924D01*
X142806812Y-88552925D01*
X142806810Y-88552927D01*
X142804717Y-88555808D01*
X142695740Y-88705800D01*
X142609954Y-88874163D01*
X142551559Y-89053881D01*
X142522000Y-89240513D01*
X142522000Y-89429486D01*
X142551559Y-89616118D01*
X142609954Y-89795836D01*
X142668871Y-89911466D01*
X142695740Y-89964199D01*
X142806810Y-90117073D01*
X142940427Y-90250690D01*
X143093301Y-90361760D01*
X143172847Y-90402290D01*
X143261663Y-90447545D01*
X143261665Y-90447545D01*
X143261668Y-90447547D01*
X143357997Y-90478846D01*
X143441381Y-90505940D01*
X143628014Y-90535500D01*
X143628019Y-90535500D01*
X143816986Y-90535500D01*
X144003618Y-90505940D01*
X144183332Y-90447547D01*
X144351699Y-90361760D01*
X144504573Y-90250690D01*
X144638190Y-90117073D01*
X144749260Y-89964199D01*
X144835047Y-89795832D01*
X144893440Y-89616118D01*
X144899033Y-89580807D01*
X144923000Y-89429486D01*
X144923000Y-89240513D01*
X146937000Y-89240513D01*
X146937000Y-89429486D01*
X146966559Y-89616118D01*
X147024954Y-89795836D01*
X147083871Y-89911466D01*
X147110740Y-89964199D01*
X147221810Y-90117073D01*
X147355427Y-90250690D01*
X147508301Y-90361760D01*
X147587847Y-90402290D01*
X147676663Y-90447545D01*
X147676665Y-90447545D01*
X147676668Y-90447547D01*
X147772997Y-90478846D01*
X147856381Y-90505940D01*
X148043014Y-90535500D01*
X148043019Y-90535500D01*
X148231986Y-90535500D01*
X148418618Y-90505940D01*
X148598332Y-90447547D01*
X148766699Y-90361760D01*
X148919573Y-90250690D01*
X149053190Y-90117073D01*
X149164260Y-89964199D01*
X149250047Y-89795832D01*
X149308440Y-89616118D01*
X149314033Y-89580807D01*
X149338000Y-89429486D01*
X149338000Y-89240513D01*
X149308440Y-89053881D01*
X149250045Y-88874163D01*
X149164259Y-88705800D01*
X149053190Y-88552927D01*
X148919573Y-88419310D01*
X148766699Y-88308240D01*
X148761363Y-88305521D01*
X148598336Y-88222454D01*
X148418618Y-88164059D01*
X148231986Y-88134500D01*
X148231981Y-88134500D01*
X148043019Y-88134500D01*
X148043014Y-88134500D01*
X147856381Y-88164059D01*
X147676663Y-88222454D01*
X147508300Y-88308240D01*
X147421079Y-88371610D01*
X147355427Y-88419310D01*
X147355425Y-88419312D01*
X147355424Y-88419312D01*
X147221812Y-88552924D01*
X147221812Y-88552925D01*
X147221810Y-88552927D01*
X147219717Y-88555808D01*
X147110740Y-88705800D01*
X147024954Y-88874163D01*
X146966559Y-89053881D01*
X146937000Y-89240513D01*
X144923000Y-89240513D01*
X144893440Y-89053881D01*
X144835045Y-88874163D01*
X144749259Y-88705800D01*
X144638190Y-88552927D01*
X144504573Y-88419310D01*
X144494669Y-88412114D01*
X144424113Y-88360851D01*
X144381448Y-88305521D01*
X144373000Y-88260534D01*
X144373000Y-85365928D01*
X144348002Y-85240260D01*
X144348000Y-85240254D01*
X144327689Y-85191221D01*
X144327687Y-85191216D01*
X144298968Y-85121878D01*
X144298962Y-85121868D01*
X144227778Y-85015332D01*
X144227772Y-85015325D01*
X140166424Y-80953978D01*
X140132939Y-80892655D01*
X140131632Y-80846899D01*
X140136488Y-80816243D01*
X140155000Y-80699361D01*
X140155000Y-80500639D01*
X140123913Y-80304364D01*
X140062505Y-80115368D01*
X140062505Y-80115367D01*
X139972286Y-79938305D01*
X139966329Y-79930106D01*
X139855481Y-79777536D01*
X139714964Y-79637019D01*
X139554194Y-79520213D01*
X139397718Y-79440484D01*
X139346923Y-79392510D01*
X139330128Y-79324689D01*
X139352665Y-79258554D01*
X139397718Y-79219515D01*
X139554194Y-79139787D01*
X139714964Y-79022981D01*
X139855481Y-78882464D01*
X139943283Y-78761615D01*
X139998613Y-78718949D01*
X140043601Y-78710500D01*
X140521692Y-78710500D01*
X140588731Y-78730185D01*
X140609373Y-78746819D01*
X151702825Y-89840272D01*
X151702832Y-89840278D01*
X151770515Y-89885502D01*
X151770516Y-89885502D01*
X151809366Y-89911461D01*
X151809372Y-89911464D01*
X151809373Y-89911465D01*
X151927756Y-89960501D01*
X151927760Y-89960501D01*
X151927761Y-89960502D01*
X152053428Y-89985500D01*
X152053431Y-89985500D01*
X152143035Y-89985500D01*
X152210074Y-90005185D01*
X152243352Y-90036613D01*
X152301810Y-90117073D01*
X152435427Y-90250690D01*
X152588301Y-90361760D01*
X152667847Y-90402290D01*
X152756663Y-90447545D01*
X152756665Y-90447545D01*
X152756668Y-90447547D01*
X152852997Y-90478846D01*
X152936381Y-90505940D01*
X153123014Y-90535500D01*
X153123019Y-90535500D01*
X153311986Y-90535500D01*
X153498618Y-90505940D01*
X153678332Y-90447547D01*
X153846699Y-90361760D01*
X153999573Y-90250690D01*
X154133190Y-90117073D01*
X154244260Y-89964199D01*
X154330047Y-89795832D01*
X154388440Y-89616118D01*
X154394033Y-89580807D01*
X154418000Y-89429486D01*
X154418000Y-89240513D01*
X156437000Y-89240513D01*
X156437000Y-89429486D01*
X156466559Y-89616118D01*
X156524954Y-89795836D01*
X156583871Y-89911466D01*
X156610740Y-89964199D01*
X156721810Y-90117073D01*
X156855427Y-90250690D01*
X157008301Y-90361760D01*
X157087847Y-90402290D01*
X157176663Y-90447545D01*
X157176665Y-90447545D01*
X157176668Y-90447547D01*
X157272997Y-90478846D01*
X157356381Y-90505940D01*
X157543014Y-90535500D01*
X157543019Y-90535500D01*
X157731986Y-90535500D01*
X157918618Y-90505940D01*
X158098332Y-90447547D01*
X158266699Y-90361760D01*
X158419573Y-90250690D01*
X158553190Y-90117073D01*
X158664260Y-89964199D01*
X158750047Y-89795832D01*
X158808440Y-89616118D01*
X158814033Y-89580807D01*
X158838000Y-89429486D01*
X158838000Y-89240513D01*
X158808440Y-89053881D01*
X158750045Y-88874163D01*
X158664259Y-88705800D01*
X158553190Y-88552927D01*
X158419573Y-88419310D01*
X158266699Y-88308240D01*
X158261363Y-88305521D01*
X158098336Y-88222454D01*
X157918618Y-88164059D01*
X157731986Y-88134500D01*
X157731981Y-88134500D01*
X157543019Y-88134500D01*
X157543014Y-88134500D01*
X157356381Y-88164059D01*
X157176663Y-88222454D01*
X157008300Y-88308240D01*
X156921079Y-88371610D01*
X156855427Y-88419310D01*
X156855425Y-88419312D01*
X156855424Y-88419312D01*
X156721812Y-88552924D01*
X156721812Y-88552925D01*
X156721810Y-88552927D01*
X156719717Y-88555808D01*
X156610740Y-88705800D01*
X156524954Y-88874163D01*
X156466559Y-89053881D01*
X156437000Y-89240513D01*
X154418000Y-89240513D01*
X154388440Y-89053881D01*
X154330045Y-88874163D01*
X154244259Y-88705800D01*
X154133190Y-88552927D01*
X153999573Y-88419310D01*
X153846699Y-88308240D01*
X153841363Y-88305521D01*
X153678336Y-88222454D01*
X153498618Y-88164059D01*
X153311986Y-88134500D01*
X153311981Y-88134500D01*
X153123019Y-88134500D01*
X153123014Y-88134500D01*
X152936381Y-88164059D01*
X152756663Y-88222454D01*
X152588300Y-88308240D01*
X152435428Y-88419309D01*
X152366272Y-88488465D01*
X152304948Y-88521949D01*
X152235257Y-88516964D01*
X152190910Y-88488464D01*
X150961240Y-87258794D01*
X150927755Y-87197471D01*
X150932739Y-87127779D01*
X150974611Y-87071846D01*
X151040075Y-87047429D01*
X151073110Y-87049495D01*
X151111772Y-87057186D01*
X151128430Y-87060500D01*
X151128431Y-87060500D01*
X159471692Y-87060500D01*
X159538731Y-87080185D01*
X159559373Y-87096819D01*
X161497765Y-89035211D01*
X161531250Y-89096534D01*
X161532557Y-89142290D01*
X161517000Y-89240513D01*
X161517000Y-89429486D01*
X161546559Y-89616118D01*
X161604954Y-89795836D01*
X161663871Y-89911466D01*
X161690740Y-89964199D01*
X161801810Y-90117073D01*
X161935427Y-90250690D01*
X162088301Y-90361760D01*
X162167847Y-90402290D01*
X162256663Y-90447545D01*
X162256665Y-90447545D01*
X162256668Y-90447547D01*
X162352997Y-90478846D01*
X162436381Y-90505940D01*
X162623014Y-90535500D01*
X162623019Y-90535500D01*
X162811986Y-90535500D01*
X162998618Y-90505940D01*
X163178332Y-90447547D01*
X163346699Y-90361760D01*
X163499573Y-90250690D01*
X163633190Y-90117073D01*
X163744260Y-89964199D01*
X163830047Y-89795832D01*
X163888440Y-89616118D01*
X163894033Y-89580807D01*
X163918000Y-89429486D01*
X163918000Y-89240513D01*
X163888440Y-89053881D01*
X163830045Y-88874163D01*
X163744259Y-88705800D01*
X163633190Y-88552927D01*
X163499573Y-88419310D01*
X163346699Y-88308240D01*
X163341363Y-88305521D01*
X163178336Y-88222454D01*
X162998618Y-88164059D01*
X162811986Y-88134500D01*
X162811981Y-88134500D01*
X162623019Y-88134500D01*
X162623014Y-88134500D01*
X162524790Y-88150057D01*
X162455496Y-88141102D01*
X162417711Y-88115265D01*
X160574627Y-86272181D01*
X160541142Y-86210858D01*
X160546126Y-86141166D01*
X160587998Y-86085233D01*
X160653462Y-86060816D01*
X160662308Y-86060500D01*
X161821692Y-86060500D01*
X161888731Y-86080185D01*
X161909373Y-86096819D01*
X164280681Y-88468127D01*
X164314166Y-88529450D01*
X164317000Y-88555808D01*
X164317000Y-90064191D01*
X164297315Y-90131230D01*
X164280681Y-90151872D01*
X156862227Y-97570325D01*
X156862224Y-97570328D01*
X156822182Y-97630255D01*
X156822183Y-97630256D01*
X156791034Y-97676874D01*
X156741999Y-97795255D01*
X156741997Y-97795261D01*
X156717000Y-97920928D01*
X156717000Y-97920931D01*
X156717000Y-107069069D01*
X156717000Y-107069071D01*
X156716999Y-107069071D01*
X156741997Y-107194738D01*
X156741999Y-107194744D01*
X156791034Y-107313125D01*
X156862226Y-107419673D01*
X156862227Y-107419674D01*
X165632999Y-116190445D01*
X165666484Y-116251768D01*
X165663249Y-116316444D01*
X165621410Y-116445210D01*
X165621410Y-116445213D01*
X165582000Y-116694038D01*
X165582000Y-116945961D01*
X165621410Y-117194785D01*
X165699260Y-117434383D01*
X165813632Y-117658848D01*
X165961701Y-117862649D01*
X165961705Y-117862654D01*
X166139845Y-118040794D01*
X166139850Y-118040798D01*
X166317617Y-118169952D01*
X166343655Y-118188870D01*
X166486684Y-118261747D01*
X166568116Y-118303239D01*
X166568118Y-118303239D01*
X166568121Y-118303241D01*
X166807715Y-118381090D01*
X167056538Y-118420500D01*
X167056539Y-118420500D01*
X167308461Y-118420500D01*
X167308462Y-118420500D01*
X167557285Y-118381090D01*
X167796879Y-118303241D01*
X168021345Y-118188870D01*
X168225156Y-118040793D01*
X168403293Y-117862656D01*
X168551370Y-117658845D01*
X168665741Y-117434379D01*
X168743590Y-117194785D01*
X168783000Y-116945962D01*
X168783000Y-116694038D01*
X168743590Y-116445215D01*
X168665741Y-116205621D01*
X168665739Y-116205618D01*
X168665739Y-116205616D01*
X168624247Y-116124184D01*
X168551370Y-115981155D01*
X168532452Y-115955117D01*
X168403298Y-115777350D01*
X168403294Y-115777345D01*
X168225154Y-115599205D01*
X168225149Y-115599201D01*
X168021348Y-115451132D01*
X168021347Y-115451131D01*
X168021345Y-115451130D01*
X167951247Y-115415413D01*
X167796883Y-115336760D01*
X167557285Y-115258910D01*
X167308462Y-115219500D01*
X167056538Y-115219500D01*
X166973597Y-115232636D01*
X166807713Y-115258910D01*
X166807710Y-115258910D01*
X166678944Y-115300749D01*
X166609102Y-115302744D01*
X166552945Y-115270499D01*
X158054319Y-106771873D01*
X158020834Y-106710550D01*
X158018000Y-106684192D01*
X158018000Y-102813389D01*
X158462000Y-102813389D01*
X158462000Y-102986611D01*
X158489098Y-103157701D01*
X158542627Y-103322445D01*
X158621268Y-103476788D01*
X158723086Y-103616928D01*
X158845572Y-103739414D01*
X158985712Y-103841232D01*
X159140055Y-103919873D01*
X159304799Y-103973402D01*
X159475889Y-104000500D01*
X159475890Y-104000500D01*
X159649110Y-104000500D01*
X159649111Y-104000500D01*
X159820201Y-103973402D01*
X159984945Y-103919873D01*
X160139288Y-103841232D01*
X160279428Y-103739414D01*
X160401914Y-103616928D01*
X160503732Y-103476788D01*
X160582373Y-103322445D01*
X160635902Y-103157701D01*
X160663000Y-102986611D01*
X160663000Y-102813389D01*
X160653354Y-102752486D01*
X162392000Y-102752486D01*
X162392000Y-103047513D01*
X162424071Y-103291113D01*
X162430507Y-103339993D01*
X162504712Y-103616930D01*
X162506861Y-103624951D01*
X162506864Y-103624961D01*
X162619754Y-103897500D01*
X162619758Y-103897510D01*
X162767261Y-104152993D01*
X162946852Y-104387040D01*
X162946858Y-104387047D01*
X163155452Y-104595641D01*
X163155459Y-104595647D01*
X163389506Y-104775238D01*
X163644989Y-104922741D01*
X163644990Y-104922741D01*
X163644993Y-104922743D01*
X163917548Y-105035639D01*
X164202507Y-105111993D01*
X164494994Y-105150500D01*
X164495001Y-105150500D01*
X164789999Y-105150500D01*
X164790006Y-105150500D01*
X165082493Y-105111993D01*
X165367452Y-105035639D01*
X165640007Y-104922743D01*
X165895494Y-104775238D01*
X166129542Y-104595646D01*
X166338146Y-104387042D01*
X166517738Y-104152994D01*
X166665243Y-103897507D01*
X166778139Y-103624952D01*
X166854493Y-103339993D01*
X166893000Y-103047506D01*
X166893000Y-102813389D01*
X168622000Y-102813389D01*
X168622000Y-102986611D01*
X168649098Y-103157701D01*
X168702627Y-103322445D01*
X168781268Y-103476788D01*
X168883086Y-103616928D01*
X169005572Y-103739414D01*
X169145712Y-103841232D01*
X169300055Y-103919873D01*
X169464799Y-103973402D01*
X169635889Y-104000500D01*
X169635890Y-104000500D01*
X169809110Y-104000500D01*
X169809111Y-104000500D01*
X169980201Y-103973402D01*
X170144945Y-103919873D01*
X170299288Y-103841232D01*
X170439428Y-103739414D01*
X170561914Y-103616928D01*
X170663732Y-103476788D01*
X170742373Y-103322445D01*
X170795902Y-103157701D01*
X170823000Y-102986611D01*
X170823000Y-102813389D01*
X170795902Y-102642299D01*
X170742373Y-102477555D01*
X170663732Y-102323212D01*
X170561914Y-102183072D01*
X170439428Y-102060586D01*
X170299288Y-101958768D01*
X170144945Y-101880127D01*
X169980201Y-101826598D01*
X169980199Y-101826597D01*
X169980198Y-101826597D01*
X169848771Y-101805781D01*
X169809111Y-101799500D01*
X169635889Y-101799500D01*
X169596228Y-101805781D01*
X169464802Y-101826597D01*
X169300052Y-101880128D01*
X169145711Y-101958768D01*
X169089615Y-101999525D01*
X169005572Y-102060586D01*
X169005570Y-102060588D01*
X169005569Y-102060588D01*
X168883088Y-102183069D01*
X168883088Y-102183070D01*
X168883086Y-102183072D01*
X168839359Y-102243256D01*
X168781268Y-102323211D01*
X168702628Y-102477552D01*
X168649097Y-102642302D01*
X168622000Y-102813389D01*
X166893000Y-102813389D01*
X166893000Y-102752494D01*
X166854493Y-102460007D01*
X166778139Y-102175048D01*
X166665243Y-101902493D01*
X166615104Y-101815650D01*
X166517738Y-101647006D01*
X166338147Y-101412959D01*
X166338141Y-101412952D01*
X166129547Y-101204358D01*
X166129540Y-101204352D01*
X165895493Y-101024761D01*
X165640010Y-100877258D01*
X165640000Y-100877254D01*
X165367461Y-100764364D01*
X165367454Y-100764362D01*
X165367452Y-100764361D01*
X165082493Y-100688007D01*
X165033613Y-100681571D01*
X164790013Y-100649500D01*
X164790006Y-100649500D01*
X164494994Y-100649500D01*
X164494986Y-100649500D01*
X164216585Y-100686153D01*
X164202507Y-100688007D01*
X164028361Y-100734669D01*
X163917548Y-100764361D01*
X163917538Y-100764364D01*
X163644999Y-100877254D01*
X163644989Y-100877258D01*
X163389506Y-101024761D01*
X163155459Y-101204352D01*
X163155452Y-101204358D01*
X162946858Y-101412952D01*
X162946852Y-101412959D01*
X162767261Y-101647006D01*
X162619758Y-101902489D01*
X162619754Y-101902499D01*
X162506864Y-102175038D01*
X162506861Y-102175048D01*
X162430508Y-102460004D01*
X162430506Y-102460015D01*
X162392000Y-102752486D01*
X160653354Y-102752486D01*
X160635902Y-102642299D01*
X160582373Y-102477555D01*
X160503732Y-102323212D01*
X160401914Y-102183072D01*
X160349382Y-102130540D01*
X160315897Y-102069217D01*
X160320881Y-101999525D01*
X160362753Y-101943592D01*
X160428217Y-101919175D01*
X160456461Y-101920386D01*
X160706572Y-101960000D01*
X160958428Y-101960000D01*
X161207169Y-101920602D01*
X161446684Y-101842780D01*
X161671075Y-101728446D01*
X161671081Y-101728442D01*
X161773197Y-101654250D01*
X161773198Y-101654250D01*
X161156525Y-101037578D01*
X161187758Y-101024641D01*
X161310597Y-100942563D01*
X161415063Y-100838097D01*
X161497141Y-100715258D01*
X161510078Y-100684025D01*
X162126750Y-101300698D01*
X162126750Y-101300697D01*
X162200942Y-101198581D01*
X162200946Y-101198575D01*
X162315280Y-100974184D01*
X162393102Y-100734669D01*
X162432500Y-100485928D01*
X162432500Y-100234071D01*
X162393102Y-99985330D01*
X162315280Y-99745815D01*
X162200942Y-99521416D01*
X162126750Y-99419301D01*
X162126750Y-99419300D01*
X161510077Y-100035973D01*
X161497141Y-100004742D01*
X161415063Y-99881903D01*
X161310597Y-99777437D01*
X161187758Y-99695359D01*
X161156524Y-99682421D01*
X161773198Y-99065748D01*
X161671083Y-98991557D01*
X161446684Y-98877219D01*
X161207169Y-98799397D01*
X160958428Y-98760000D01*
X160706572Y-98760000D01*
X160457830Y-98799397D01*
X160218315Y-98877219D01*
X159993913Y-98991559D01*
X159891801Y-99065747D01*
X159891800Y-99065748D01*
X160508474Y-99682421D01*
X160477242Y-99695359D01*
X160354403Y-99777437D01*
X160249937Y-99881903D01*
X160167859Y-100004742D01*
X160154922Y-100035974D01*
X159538248Y-99419300D01*
X159538247Y-99419301D01*
X159464059Y-99521413D01*
X159349719Y-99745815D01*
X159271897Y-99985330D01*
X159232500Y-100234071D01*
X159232500Y-100485928D01*
X159271897Y-100734669D01*
X159349719Y-100974184D01*
X159464057Y-101198583D01*
X159538248Y-101300697D01*
X159538248Y-101300698D01*
X160154921Y-100684024D01*
X160167859Y-100715258D01*
X160249937Y-100838097D01*
X160354403Y-100942563D01*
X160477242Y-101024641D01*
X160508474Y-101037577D01*
X159891800Y-101654250D01*
X159894098Y-101683449D01*
X159879733Y-101751827D01*
X159830681Y-101801583D01*
X159762516Y-101816921D01*
X159751083Y-101815650D01*
X159649111Y-101799500D01*
X159475889Y-101799500D01*
X159436228Y-101805781D01*
X159304802Y-101826597D01*
X159140052Y-101880128D01*
X158985711Y-101958768D01*
X158929615Y-101999525D01*
X158845572Y-102060586D01*
X158845570Y-102060588D01*
X158845569Y-102060588D01*
X158723088Y-102183069D01*
X158723088Y-102183070D01*
X158723086Y-102183072D01*
X158679359Y-102243256D01*
X158621268Y-102323211D01*
X158542628Y-102477552D01*
X158489097Y-102642302D01*
X158462000Y-102813389D01*
X158018000Y-102813389D01*
X158018000Y-98305808D01*
X158037685Y-98238769D01*
X158054319Y-98218127D01*
X165472773Y-90799673D01*
X165472777Y-90799669D01*
X165543965Y-90693127D01*
X165593001Y-90574744D01*
X165606687Y-90505940D01*
X165618000Y-90449069D01*
X165618000Y-88170931D01*
X165618000Y-88170928D01*
X165593002Y-88045261D01*
X165593001Y-88045260D01*
X165593001Y-88045256D01*
X165558326Y-87961544D01*
X165543964Y-87926870D01*
X165472777Y-87820331D01*
X165472771Y-87820324D01*
X162824627Y-85172181D01*
X162791142Y-85110858D01*
X162796126Y-85041166D01*
X162837998Y-84985233D01*
X162903462Y-84960816D01*
X162912308Y-84960500D01*
X164396692Y-84960500D01*
X164463731Y-84980185D01*
X164484373Y-84996819D01*
X167427489Y-87939935D01*
X167460974Y-88001258D01*
X167455990Y-88070950D01*
X167414118Y-88126883D01*
X167348654Y-88151300D01*
X167320410Y-88150089D01*
X167221986Y-88134500D01*
X167221981Y-88134500D01*
X167033019Y-88134500D01*
X167033014Y-88134500D01*
X166846381Y-88164059D01*
X166666663Y-88222454D01*
X166498300Y-88308240D01*
X166411079Y-88371610D01*
X166345427Y-88419310D01*
X166345425Y-88419312D01*
X166345424Y-88419312D01*
X166211812Y-88552924D01*
X166211812Y-88552925D01*
X166211810Y-88552927D01*
X166209717Y-88555808D01*
X166100740Y-88705800D01*
X166014954Y-88874163D01*
X165956559Y-89053881D01*
X165927000Y-89240513D01*
X165927000Y-89429486D01*
X165956559Y-89616118D01*
X166014954Y-89795836D01*
X166073871Y-89911466D01*
X166100740Y-89964199D01*
X166211810Y-90117073D01*
X166345427Y-90250690D01*
X166498301Y-90361760D01*
X166577847Y-90402290D01*
X166666663Y-90447545D01*
X166666665Y-90447545D01*
X166666668Y-90447547D01*
X166762997Y-90478846D01*
X166846381Y-90505940D01*
X167033014Y-90535500D01*
X167033019Y-90535500D01*
X167221986Y-90535500D01*
X167408618Y-90505940D01*
X167588332Y-90447547D01*
X167756699Y-90361760D01*
X167909573Y-90250690D01*
X168043190Y-90117073D01*
X168154260Y-89964199D01*
X168240047Y-89795832D01*
X168298440Y-89616118D01*
X168304033Y-89580807D01*
X168328000Y-89429486D01*
X168328000Y-89240514D01*
X168312410Y-89142089D01*
X168321364Y-89072795D01*
X168366360Y-89019343D01*
X168433111Y-88998703D01*
X168500425Y-89017427D01*
X168522564Y-89035009D01*
X168980681Y-89493126D01*
X169014166Y-89554449D01*
X169017000Y-89580807D01*
X169017000Y-95014191D01*
X168997315Y-95081230D01*
X168980681Y-95101872D01*
X167812053Y-96270499D01*
X167750730Y-96303984D01*
X167686054Y-96300749D01*
X167557287Y-96258910D01*
X167391403Y-96232636D01*
X167308462Y-96219500D01*
X167056538Y-96219500D01*
X166932126Y-96239205D01*
X166807714Y-96258910D01*
X166568116Y-96336760D01*
X166343651Y-96451132D01*
X166139850Y-96599201D01*
X166139845Y-96599205D01*
X165961705Y-96777345D01*
X165961701Y-96777350D01*
X165813632Y-96981151D01*
X165699260Y-97205616D01*
X165621410Y-97445214D01*
X165582000Y-97694038D01*
X165582000Y-97945961D01*
X165621410Y-98194785D01*
X165699260Y-98434383D01*
X165813632Y-98658848D01*
X165961701Y-98862649D01*
X165961705Y-98862654D01*
X166139845Y-99040794D01*
X166139850Y-99040798D01*
X166317617Y-99169952D01*
X166343655Y-99188870D01*
X166486684Y-99261747D01*
X166568116Y-99303239D01*
X166568118Y-99303239D01*
X166568121Y-99303241D01*
X166807715Y-99381090D01*
X167056538Y-99420500D01*
X167056539Y-99420500D01*
X167308461Y-99420500D01*
X167308462Y-99420500D01*
X167557285Y-99381090D01*
X167796879Y-99303241D01*
X168021345Y-99188870D01*
X168225156Y-99040793D01*
X168403293Y-98862656D01*
X168551370Y-98658845D01*
X168665741Y-98434379D01*
X168743590Y-98194785D01*
X168783000Y-97945962D01*
X168783000Y-97694038D01*
X168743590Y-97445215D01*
X168701748Y-97316443D01*
X168699754Y-97246603D01*
X168731997Y-97190447D01*
X170172777Y-95749669D01*
X170243965Y-95643127D01*
X170293001Y-95524743D01*
X170318000Y-95399069D01*
X170318000Y-95270931D01*
X170318000Y-89195931D01*
X170318000Y-89195928D01*
X170293002Y-89070261D01*
X170293001Y-89070260D01*
X170293001Y-89070256D01*
X170243965Y-88951873D01*
X170243964Y-88951872D01*
X170243961Y-88951866D01*
X170172777Y-88845332D01*
X170172776Y-88845331D01*
X170082169Y-88754724D01*
X165549627Y-84222181D01*
X165516142Y-84160858D01*
X165521126Y-84091166D01*
X165562998Y-84035233D01*
X165628462Y-84010816D01*
X165637308Y-84010500D01*
X165911692Y-84010500D01*
X165978731Y-84030185D01*
X165999373Y-84046819D01*
X170987765Y-89035211D01*
X171021250Y-89096534D01*
X171022557Y-89142290D01*
X171007000Y-89240513D01*
X171007000Y-89429486D01*
X171036559Y-89616118D01*
X171094954Y-89795836D01*
X171153871Y-89911466D01*
X171180740Y-89964199D01*
X171291810Y-90117073D01*
X171425427Y-90250690D01*
X171578301Y-90361760D01*
X171657847Y-90402290D01*
X171746663Y-90447545D01*
X171746665Y-90447545D01*
X171746668Y-90447547D01*
X171842997Y-90478846D01*
X171926381Y-90505940D01*
X172113014Y-90535500D01*
X172113019Y-90535500D01*
X172301986Y-90535500D01*
X172488618Y-90505940D01*
X172668332Y-90447547D01*
X172836699Y-90361760D01*
X172989573Y-90250690D01*
X173123190Y-90117073D01*
X173234260Y-89964199D01*
X173320047Y-89795832D01*
X173378440Y-89616118D01*
X173384033Y-89580807D01*
X173408000Y-89429486D01*
X173408000Y-89240513D01*
X173378440Y-89053881D01*
X173320045Y-88874163D01*
X173234259Y-88705800D01*
X173123190Y-88552927D01*
X172989573Y-88419310D01*
X172836699Y-88308240D01*
X172831363Y-88305521D01*
X172668336Y-88222454D01*
X172488618Y-88164059D01*
X172301986Y-88134500D01*
X172301981Y-88134500D01*
X172113019Y-88134500D01*
X172113014Y-88134500D01*
X172014790Y-88150057D01*
X171945496Y-88141102D01*
X171907711Y-88115265D01*
X166647174Y-82854727D01*
X166647173Y-82854726D01*
X166647169Y-82854723D01*
X166540627Y-82783535D01*
X166422244Y-82734499D01*
X166422238Y-82734497D01*
X166296571Y-82709500D01*
X166296569Y-82709500D01*
X157213308Y-82709500D01*
X157146269Y-82689815D01*
X157125627Y-82673181D01*
X156139627Y-81687181D01*
X156106142Y-81625858D01*
X156111126Y-81556166D01*
X156152998Y-81500233D01*
X156218462Y-81475816D01*
X156227308Y-81475500D01*
X156946742Y-81475500D01*
X157013781Y-81495185D01*
X157034423Y-81511819D01*
X157162713Y-81640109D01*
X157334679Y-81765048D01*
X157334681Y-81765049D01*
X157334684Y-81765051D01*
X157524088Y-81861557D01*
X157726257Y-81927246D01*
X157936213Y-81960500D01*
X157936214Y-81960500D01*
X158148786Y-81960500D01*
X158148787Y-81960500D01*
X158358743Y-81927246D01*
X158560912Y-81861557D01*
X158750316Y-81765051D01*
X158867673Y-81679787D01*
X158922286Y-81640109D01*
X158922288Y-81640106D01*
X158922292Y-81640104D01*
X159072604Y-81489792D01*
X159072606Y-81489788D01*
X159072609Y-81489786D01*
X159197548Y-81317820D01*
X159197547Y-81317820D01*
X159197551Y-81317816D01*
X159294057Y-81128412D01*
X159359746Y-80926243D01*
X159393000Y-80716287D01*
X159393000Y-80503713D01*
X159359746Y-80293757D01*
X159294057Y-80091588D01*
X159197551Y-79902184D01*
X159197549Y-79902181D01*
X159197548Y-79902179D01*
X159072609Y-79730213D01*
X158922286Y-79579890D01*
X158750320Y-79454951D01*
X158749615Y-79454591D01*
X158741554Y-79450485D01*
X158690759Y-79402512D01*
X158673963Y-79334692D01*
X158696499Y-79268556D01*
X158741554Y-79229515D01*
X158750316Y-79225051D01*
X158799686Y-79189182D01*
X160441573Y-79189182D01*
X160441573Y-79410817D01*
X160476241Y-79629707D01*
X160544729Y-79840488D01*
X160645343Y-80037953D01*
X160775611Y-80217251D01*
X160932322Y-80373962D01*
X161111620Y-80504230D01*
X161160892Y-80529335D01*
X161309084Y-80604843D01*
X161309086Y-80604843D01*
X161309089Y-80604845D01*
X161386351Y-80629949D01*
X161519865Y-80673331D01*
X161738756Y-80708000D01*
X161738761Y-80708000D01*
X161960390Y-80708000D01*
X162179280Y-80673331D01*
X162390057Y-80604845D01*
X162587526Y-80504230D01*
X162766824Y-80373962D01*
X162807879Y-80332906D01*
X162869200Y-80299422D01*
X162938891Y-80304406D01*
X162994825Y-80346276D01*
X163011741Y-80377255D01*
X163038718Y-80449586D01*
X163038722Y-80449593D01*
X163124882Y-80564687D01*
X163124885Y-80564690D01*
X163239979Y-80650850D01*
X163239986Y-80650854D01*
X163374693Y-80701096D01*
X163374700Y-80701098D01*
X163434228Y-80707499D01*
X163434245Y-80707500D01*
X164139573Y-80707500D01*
X164139573Y-79854256D01*
X164156052Y-79863771D01*
X164309923Y-79905000D01*
X164469223Y-79905000D01*
X164623094Y-79863771D01*
X164639573Y-79854256D01*
X164639573Y-80707500D01*
X165344901Y-80707500D01*
X165344917Y-80707499D01*
X165404445Y-80701098D01*
X165404452Y-80701096D01*
X165539159Y-80650854D01*
X165539166Y-80650850D01*
X165654260Y-80564690D01*
X165654263Y-80564687D01*
X165740423Y-80449593D01*
X165740427Y-80449586D01*
X165790669Y-80314879D01*
X165790671Y-80314872D01*
X165797072Y-80255344D01*
X165797073Y-80255327D01*
X165797073Y-79550000D01*
X164943830Y-79550000D01*
X164953344Y-79533521D01*
X164994573Y-79379650D01*
X164994573Y-79220350D01*
X164953344Y-79066479D01*
X164943830Y-79050000D01*
X165797073Y-79050000D01*
X165797073Y-78369761D01*
X167735000Y-78369761D01*
X167735000Y-79075106D01*
X168588243Y-79075106D01*
X168578729Y-79091585D01*
X168537500Y-79245456D01*
X168537500Y-79404756D01*
X168578729Y-79558627D01*
X168588243Y-79575106D01*
X167735000Y-79575106D01*
X167735000Y-80280450D01*
X167741401Y-80339978D01*
X167741403Y-80339985D01*
X167791645Y-80474692D01*
X167791649Y-80474699D01*
X167877809Y-80589793D01*
X167877812Y-80589796D01*
X167992906Y-80675956D01*
X167992913Y-80675960D01*
X168127620Y-80726202D01*
X168127627Y-80726204D01*
X168187155Y-80732605D01*
X168187172Y-80732606D01*
X168892500Y-80732606D01*
X168892500Y-79879362D01*
X168908979Y-79888877D01*
X169062850Y-79930106D01*
X169222150Y-79930106D01*
X169376021Y-79888877D01*
X169392500Y-79879362D01*
X169392500Y-80732606D01*
X170097828Y-80732606D01*
X170097844Y-80732605D01*
X170157372Y-80726204D01*
X170157379Y-80726202D01*
X170292086Y-80675960D01*
X170292093Y-80675956D01*
X170407187Y-80589796D01*
X170407190Y-80589793D01*
X170493350Y-80474699D01*
X170493353Y-80474694D01*
X170520330Y-80402363D01*
X170562201Y-80346428D01*
X170627665Y-80322010D01*
X170695938Y-80336861D01*
X170724194Y-80358013D01*
X170765249Y-80399068D01*
X170944547Y-80529336D01*
X171037844Y-80576873D01*
X171142011Y-80629949D01*
X171142013Y-80629949D01*
X171142016Y-80629951D01*
X171254996Y-80666660D01*
X171352792Y-80698437D01*
X171571683Y-80733106D01*
X171571688Y-80733106D01*
X171793317Y-80733106D01*
X172012207Y-80698437D01*
X172222984Y-80629951D01*
X172420453Y-80529336D01*
X172599751Y-80399068D01*
X172756462Y-80242357D01*
X172886730Y-80063059D01*
X172987345Y-79865590D01*
X173055831Y-79654813D01*
X173064383Y-79600818D01*
X173090500Y-79435923D01*
X173090500Y-79214288D01*
X173055831Y-78995398D01*
X173010272Y-78855185D01*
X172987345Y-78784622D01*
X172987343Y-78784619D01*
X172987343Y-78784617D01*
X172927830Y-78667816D01*
X172886730Y-78587153D01*
X172756462Y-78407855D01*
X172599751Y-78251144D01*
X172420453Y-78120876D01*
X172222988Y-78020262D01*
X172012207Y-77951774D01*
X171793317Y-77917106D01*
X171793312Y-77917106D01*
X171571688Y-77917106D01*
X171571683Y-77917106D01*
X171352792Y-77951774D01*
X171142011Y-78020262D01*
X170944546Y-78120876D01*
X170842250Y-78195198D01*
X170765249Y-78251144D01*
X170765247Y-78251146D01*
X170765245Y-78251147D01*
X170724193Y-78292199D01*
X170662870Y-78325684D01*
X170593178Y-78320698D01*
X170537245Y-78278826D01*
X170520331Y-78247849D01*
X170493355Y-78175521D01*
X170493350Y-78175512D01*
X170407190Y-78060418D01*
X170407187Y-78060415D01*
X170292093Y-77974255D01*
X170292086Y-77974251D01*
X170157379Y-77924009D01*
X170157372Y-77924007D01*
X170097844Y-77917606D01*
X169392500Y-77917606D01*
X169392500Y-78770849D01*
X169376021Y-78761335D01*
X169222150Y-78720106D01*
X169062850Y-78720106D01*
X168908979Y-78761335D01*
X168892500Y-78770849D01*
X168892500Y-77917606D01*
X168187155Y-77917606D01*
X168127627Y-77924007D01*
X168127620Y-77924009D01*
X167992913Y-77974251D01*
X167992906Y-77974255D01*
X167877812Y-78060415D01*
X167877809Y-78060418D01*
X167791649Y-78175512D01*
X167791645Y-78175519D01*
X167741403Y-78310226D01*
X167741401Y-78310233D01*
X167735000Y-78369761D01*
X165797073Y-78369761D01*
X165797073Y-78344672D01*
X165797072Y-78344655D01*
X165790671Y-78285127D01*
X165790669Y-78285120D01*
X165740427Y-78150413D01*
X165740423Y-78150406D01*
X165654263Y-78035312D01*
X165654260Y-78035309D01*
X165539166Y-77949149D01*
X165539159Y-77949145D01*
X165404452Y-77898903D01*
X165404445Y-77898901D01*
X165344917Y-77892500D01*
X164639573Y-77892500D01*
X164639573Y-78745743D01*
X164623094Y-78736229D01*
X164469223Y-78695000D01*
X164309923Y-78695000D01*
X164156052Y-78736229D01*
X164139573Y-78745743D01*
X164139573Y-77892500D01*
X163434228Y-77892500D01*
X163374700Y-77898901D01*
X163374693Y-77898903D01*
X163239986Y-77949145D01*
X163239979Y-77949149D01*
X163124885Y-78035309D01*
X163124882Y-78035312D01*
X163038722Y-78150406D01*
X163038718Y-78150413D01*
X163011741Y-78222744D01*
X162969870Y-78278678D01*
X162904405Y-78303095D01*
X162836132Y-78288243D01*
X162807878Y-78267092D01*
X162766826Y-78226040D01*
X162766824Y-78226038D01*
X162587526Y-78095770D01*
X162390061Y-77995156D01*
X162179280Y-77926668D01*
X161960390Y-77892000D01*
X161960385Y-77892000D01*
X161738761Y-77892000D01*
X161738756Y-77892000D01*
X161519865Y-77926668D01*
X161309084Y-77995156D01*
X161111619Y-78095770D01*
X161024096Y-78159360D01*
X160932322Y-78226038D01*
X160932320Y-78226040D01*
X160932319Y-78226040D01*
X160775613Y-78382746D01*
X160775613Y-78382747D01*
X160775611Y-78382749D01*
X160719665Y-78459750D01*
X160645343Y-78562046D01*
X160544729Y-78759511D01*
X160476241Y-78970292D01*
X160441573Y-79189182D01*
X158799686Y-79189182D01*
X158829541Y-79167491D01*
X158922286Y-79100109D01*
X158922288Y-79100106D01*
X158922292Y-79100104D01*
X159072604Y-78949792D01*
X159072606Y-78949788D01*
X159072609Y-78949786D01*
X159197548Y-78777820D01*
X159197547Y-78777820D01*
X159197551Y-78777816D01*
X159294057Y-78588412D01*
X159359746Y-78386243D01*
X159393000Y-78176287D01*
X159393000Y-77963713D01*
X159359746Y-77753757D01*
X159294057Y-77551588D01*
X159197551Y-77362184D01*
X159197549Y-77362181D01*
X159197548Y-77362179D01*
X159072609Y-77190213D01*
X158922286Y-77039890D01*
X158750320Y-76914951D01*
X158749615Y-76914591D01*
X158741554Y-76910485D01*
X158690759Y-76862512D01*
X158673963Y-76794692D01*
X158696499Y-76728556D01*
X158741554Y-76689515D01*
X158750316Y-76685051D01*
X158829541Y-76627491D01*
X158922286Y-76560109D01*
X158922288Y-76560106D01*
X158922292Y-76560104D01*
X159072604Y-76409792D01*
X159072606Y-76409788D01*
X159072609Y-76409786D01*
X159197548Y-76237820D01*
X159197547Y-76237820D01*
X159197551Y-76237816D01*
X159294057Y-76048412D01*
X159359746Y-75846243D01*
X159393000Y-75636287D01*
X159393000Y-75423713D01*
X159359746Y-75213757D01*
X159294057Y-75011588D01*
X159197551Y-74822184D01*
X159197549Y-74822181D01*
X159197548Y-74822179D01*
X159072609Y-74650213D01*
X158922286Y-74499890D01*
X158750320Y-74374951D01*
X158749615Y-74374591D01*
X158741554Y-74370485D01*
X158690759Y-74322512D01*
X158673963Y-74254692D01*
X158696499Y-74188556D01*
X158741554Y-74149515D01*
X158750316Y-74145051D01*
X158829541Y-74087491D01*
X158922286Y-74020109D01*
X158922288Y-74020106D01*
X158922292Y-74020104D01*
X159072604Y-73869792D01*
X159072606Y-73869788D01*
X159072609Y-73869786D01*
X159197548Y-73697820D01*
X159197547Y-73697820D01*
X159197551Y-73697816D01*
X159294057Y-73508412D01*
X159359746Y-73306243D01*
X159393000Y-73096287D01*
X159393000Y-72883713D01*
X159359746Y-72673757D01*
X159294057Y-72471588D01*
X159197551Y-72282184D01*
X159197549Y-72282181D01*
X159197548Y-72282179D01*
X159072609Y-72110213D01*
X158922292Y-71959896D01*
X158922284Y-71959890D01*
X158750316Y-71834949D01*
X158734482Y-71826881D01*
X158727924Y-71822403D01*
X158710620Y-71801270D01*
X158692415Y-71784076D01*
X160442000Y-71784076D01*
X160442000Y-72005711D01*
X160476668Y-72224601D01*
X160545156Y-72435382D01*
X160627991Y-72597953D01*
X160645770Y-72632847D01*
X160776038Y-72812145D01*
X160932749Y-72968856D01*
X161112047Y-73099124D01*
X161205344Y-73146661D01*
X161309511Y-73199737D01*
X161309513Y-73199737D01*
X161309516Y-73199739D01*
X161412901Y-73233331D01*
X161520292Y-73268225D01*
X161739183Y-73302894D01*
X161739188Y-73302894D01*
X161960817Y-73302894D01*
X162179707Y-73268225D01*
X162181941Y-73267499D01*
X162390484Y-73199739D01*
X162587953Y-73099124D01*
X162767251Y-72968856D01*
X162808306Y-72927800D01*
X162869627Y-72894316D01*
X162939318Y-72899300D01*
X162995252Y-72941170D01*
X163012168Y-72972149D01*
X163039145Y-73044480D01*
X163039149Y-73044487D01*
X163125309Y-73159581D01*
X163125312Y-73159584D01*
X163240406Y-73245744D01*
X163240413Y-73245748D01*
X163375120Y-73295990D01*
X163375127Y-73295992D01*
X163434655Y-73302393D01*
X163434672Y-73302394D01*
X164140000Y-73302394D01*
X164140000Y-72449150D01*
X164156479Y-72458665D01*
X164310350Y-72499894D01*
X164469650Y-72499894D01*
X164623521Y-72458665D01*
X164640000Y-72449150D01*
X164640000Y-73302394D01*
X165345328Y-73302394D01*
X165345344Y-73302393D01*
X165404872Y-73295992D01*
X165404879Y-73295990D01*
X165539586Y-73245748D01*
X165539593Y-73245744D01*
X165654687Y-73159584D01*
X165654690Y-73159581D01*
X165740850Y-73044487D01*
X165740854Y-73044480D01*
X165791096Y-72909773D01*
X165791098Y-72909766D01*
X165797499Y-72850238D01*
X165797500Y-72850221D01*
X165797500Y-72144894D01*
X164944257Y-72144894D01*
X164953771Y-72128415D01*
X164995000Y-71974544D01*
X164995000Y-71815244D01*
X164953771Y-71661373D01*
X164944257Y-71644894D01*
X165797500Y-71644894D01*
X165797500Y-70939566D01*
X165797499Y-70939552D01*
X165794817Y-70914608D01*
X165794817Y-70914607D01*
X165793747Y-70904655D01*
X167735000Y-70904655D01*
X167735000Y-71610000D01*
X168588243Y-71610000D01*
X168578729Y-71626479D01*
X168537500Y-71780350D01*
X168537500Y-71939650D01*
X168578729Y-72093521D01*
X168588243Y-72110000D01*
X167735000Y-72110000D01*
X167735000Y-72815344D01*
X167741401Y-72874872D01*
X167741403Y-72874879D01*
X167791645Y-73009586D01*
X167791649Y-73009593D01*
X167877809Y-73124687D01*
X167877812Y-73124690D01*
X167992906Y-73210850D01*
X167992913Y-73210854D01*
X168127620Y-73261096D01*
X168127627Y-73261098D01*
X168187155Y-73267499D01*
X168187172Y-73267500D01*
X168892500Y-73267500D01*
X168892500Y-72414256D01*
X168908979Y-72423771D01*
X169062850Y-72465000D01*
X169222150Y-72465000D01*
X169376021Y-72423771D01*
X169392500Y-72414256D01*
X169392500Y-73267500D01*
X170097828Y-73267500D01*
X170097844Y-73267499D01*
X170157372Y-73261098D01*
X170157379Y-73261096D01*
X170292086Y-73210854D01*
X170292093Y-73210850D01*
X170407187Y-73124690D01*
X170407190Y-73124687D01*
X170493350Y-73009593D01*
X170493353Y-73009588D01*
X170520330Y-72937257D01*
X170562201Y-72881322D01*
X170627665Y-72856904D01*
X170695938Y-72871755D01*
X170724194Y-72892907D01*
X170765249Y-72933962D01*
X170944547Y-73064230D01*
X171007461Y-73096286D01*
X171142011Y-73164843D01*
X171142013Y-73164843D01*
X171142016Y-73164845D01*
X171238636Y-73196239D01*
X171352792Y-73233331D01*
X171571683Y-73268000D01*
X171571688Y-73268000D01*
X171793317Y-73268000D01*
X172012207Y-73233331D01*
X172222984Y-73164845D01*
X172420453Y-73064230D01*
X172599751Y-72933962D01*
X172756462Y-72777251D01*
X172886730Y-72597953D01*
X172987345Y-72400484D01*
X173055831Y-72189707D01*
X173065539Y-72128415D01*
X173090500Y-71970817D01*
X173090500Y-71749182D01*
X173055831Y-71530292D01*
X173016996Y-71410773D01*
X172987345Y-71319516D01*
X172987343Y-71319513D01*
X172987343Y-71319511D01*
X172904509Y-71156941D01*
X172886730Y-71122047D01*
X172756462Y-70942749D01*
X172599751Y-70786038D01*
X172420453Y-70655770D01*
X172370275Y-70630203D01*
X172222988Y-70555156D01*
X172012207Y-70486668D01*
X171793317Y-70452000D01*
X171793312Y-70452000D01*
X171571688Y-70452000D01*
X171571683Y-70452000D01*
X171352792Y-70486668D01*
X171142011Y-70555156D01*
X170944546Y-70655770D01*
X170869335Y-70710415D01*
X170765249Y-70786038D01*
X170765247Y-70786040D01*
X170765245Y-70786041D01*
X170724193Y-70827093D01*
X170662870Y-70860578D01*
X170593178Y-70855592D01*
X170537245Y-70813720D01*
X170520331Y-70782743D01*
X170493355Y-70710415D01*
X170493350Y-70710406D01*
X170407190Y-70595312D01*
X170407187Y-70595309D01*
X170292093Y-70509149D01*
X170292086Y-70509145D01*
X170157379Y-70458903D01*
X170157372Y-70458901D01*
X170097844Y-70452500D01*
X169392500Y-70452500D01*
X169392500Y-71305743D01*
X169376021Y-71296229D01*
X169222150Y-71255000D01*
X169062850Y-71255000D01*
X168908979Y-71296229D01*
X168892500Y-71305743D01*
X168892500Y-70452500D01*
X168187155Y-70452500D01*
X168127627Y-70458901D01*
X168127620Y-70458903D01*
X167992913Y-70509145D01*
X167992906Y-70509149D01*
X167877812Y-70595309D01*
X167877809Y-70595312D01*
X167791649Y-70710406D01*
X167791645Y-70710413D01*
X167741403Y-70845120D01*
X167741401Y-70845127D01*
X167735000Y-70904655D01*
X165793747Y-70904655D01*
X165791098Y-70880021D01*
X165791096Y-70880014D01*
X165740854Y-70745307D01*
X165740850Y-70745300D01*
X165654690Y-70630206D01*
X165654687Y-70630203D01*
X165539593Y-70544043D01*
X165539586Y-70544039D01*
X165404879Y-70493797D01*
X165404872Y-70493795D01*
X165345344Y-70487394D01*
X164640000Y-70487394D01*
X164640000Y-71340637D01*
X164623521Y-71331123D01*
X164469650Y-71289894D01*
X164310350Y-71289894D01*
X164156479Y-71331123D01*
X164140000Y-71340637D01*
X164140000Y-70487394D01*
X163434655Y-70487394D01*
X163375127Y-70493795D01*
X163375120Y-70493797D01*
X163240413Y-70544039D01*
X163240406Y-70544043D01*
X163125312Y-70630203D01*
X163125309Y-70630206D01*
X163039149Y-70745300D01*
X163039145Y-70745307D01*
X163012168Y-70817638D01*
X162970297Y-70873572D01*
X162904832Y-70897989D01*
X162836559Y-70883137D01*
X162808305Y-70861986D01*
X162767253Y-70820934D01*
X162767251Y-70820932D01*
X162587953Y-70690664D01*
X162520398Y-70656243D01*
X162390488Y-70590050D01*
X162179707Y-70521562D01*
X161960817Y-70486894D01*
X161960812Y-70486894D01*
X161739188Y-70486894D01*
X161739183Y-70486894D01*
X161520292Y-70521562D01*
X161309511Y-70590050D01*
X161112046Y-70690664D01*
X161009750Y-70764986D01*
X160932749Y-70820932D01*
X160932747Y-70820934D01*
X160932746Y-70820934D01*
X160776040Y-70977640D01*
X160776040Y-70977641D01*
X160776038Y-70977643D01*
X160725054Y-71047816D01*
X160645770Y-71156940D01*
X160545156Y-71354405D01*
X160476668Y-71565186D01*
X160442000Y-71784076D01*
X158692415Y-71784076D01*
X158690759Y-71782512D01*
X158688806Y-71774627D01*
X158683661Y-71768343D01*
X158680530Y-71741208D01*
X158673963Y-71714692D01*
X158676583Y-71707002D01*
X158675652Y-71698934D01*
X158687687Y-71674413D01*
X158696499Y-71648556D01*
X158703253Y-71642703D01*
X158706439Y-71636213D01*
X158720642Y-71627635D01*
X158741554Y-71609515D01*
X158750316Y-71605051D01*
X158772289Y-71589086D01*
X158922286Y-71480109D01*
X158922288Y-71480106D01*
X158922292Y-71480104D01*
X159072604Y-71329792D01*
X159072606Y-71329788D01*
X159072609Y-71329786D01*
X159197548Y-71157820D01*
X159197547Y-71157820D01*
X159197551Y-71157816D01*
X159294057Y-70968412D01*
X159359746Y-70766243D01*
X159393000Y-70556287D01*
X159393000Y-70343713D01*
X159359746Y-70133757D01*
X159294057Y-69931588D01*
X159197551Y-69742184D01*
X159197549Y-69742181D01*
X159197548Y-69742179D01*
X159072609Y-69570213D01*
X158922286Y-69419890D01*
X158750317Y-69294949D01*
X158741004Y-69290204D01*
X158690207Y-69242230D01*
X158673412Y-69174409D01*
X158695949Y-69108274D01*
X158741007Y-69069232D01*
X158750058Y-69064620D01*
X158921959Y-68939727D01*
X158921964Y-68939723D01*
X158968010Y-68893677D01*
X165959873Y-68893677D01*
X165959873Y-68893678D01*
X165994858Y-68919096D01*
X166170164Y-69008418D01*
X166357294Y-69069221D01*
X166551618Y-69100000D01*
X166748382Y-69100000D01*
X166942705Y-69069221D01*
X167129835Y-69008418D01*
X167305143Y-68919095D01*
X167340125Y-68893678D01*
X167340126Y-68893678D01*
X166650001Y-68203553D01*
X166650000Y-68203553D01*
X165959873Y-68893677D01*
X158968010Y-68893677D01*
X159072225Y-68789462D01*
X159083797Y-68773535D01*
X159083797Y-68773534D01*
X159197120Y-68617557D01*
X159293595Y-68428217D01*
X159359257Y-68226129D01*
X159359257Y-68226126D01*
X159369731Y-68160000D01*
X158475512Y-68160000D01*
X158508425Y-68102993D01*
X158542500Y-67975826D01*
X158542500Y-67844174D01*
X158517699Y-67751617D01*
X165400000Y-67751617D01*
X165400000Y-67948382D01*
X165430778Y-68142705D01*
X165491581Y-68329835D01*
X165580905Y-68505145D01*
X165606319Y-68540125D01*
X165606320Y-68540125D01*
X166296446Y-67850000D01*
X166296446Y-67849999D01*
X166250369Y-67803922D01*
X166300000Y-67803922D01*
X166300000Y-67896078D01*
X166323852Y-67985095D01*
X166369930Y-68064905D01*
X166435095Y-68130070D01*
X166514905Y-68176148D01*
X166603922Y-68200000D01*
X166696078Y-68200000D01*
X166785095Y-68176148D01*
X166864905Y-68130070D01*
X166930070Y-68064905D01*
X166976148Y-67985095D01*
X167000000Y-67896078D01*
X167000000Y-67849999D01*
X167003553Y-67849999D01*
X167003553Y-67850001D01*
X167693678Y-68540126D01*
X167693678Y-68540125D01*
X167719095Y-68505143D01*
X167808418Y-68329835D01*
X167869221Y-68142705D01*
X167900000Y-67948382D01*
X167900000Y-67751617D01*
X167869221Y-67557294D01*
X167808418Y-67370164D01*
X167719096Y-67194858D01*
X167693678Y-67159873D01*
X167693677Y-67159873D01*
X167003553Y-67849999D01*
X167000000Y-67849999D01*
X167000000Y-67803922D01*
X166976148Y-67714905D01*
X166930070Y-67635095D01*
X166864905Y-67569930D01*
X166785095Y-67523852D01*
X166696078Y-67500000D01*
X166603922Y-67500000D01*
X166514905Y-67523852D01*
X166435095Y-67569930D01*
X166369930Y-67635095D01*
X166323852Y-67714905D01*
X166300000Y-67803922D01*
X166250369Y-67803922D01*
X165606320Y-67159872D01*
X165606320Y-67159873D01*
X165580902Y-67194859D01*
X165580899Y-67194863D01*
X165491582Y-67370161D01*
X165430778Y-67557294D01*
X165400000Y-67751617D01*
X158517699Y-67751617D01*
X158508425Y-67717007D01*
X158475512Y-67660000D01*
X159369731Y-67660000D01*
X159359257Y-67593873D01*
X159359257Y-67593870D01*
X159293595Y-67391782D01*
X159197120Y-67202442D01*
X159072227Y-67030540D01*
X159072223Y-67030535D01*
X158958553Y-66916865D01*
X158925068Y-66855542D01*
X158928588Y-66806320D01*
X165959872Y-66806320D01*
X166650000Y-67496446D01*
X166650001Y-67496446D01*
X167340125Y-66806320D01*
X167340125Y-66806319D01*
X167305145Y-66780905D01*
X167129835Y-66691581D01*
X166942705Y-66630778D01*
X166748382Y-66600000D01*
X166551618Y-66600000D01*
X166357294Y-66630778D01*
X166170161Y-66691582D01*
X165994863Y-66780899D01*
X165994859Y-66780902D01*
X165959873Y-66806320D01*
X165959872Y-66806320D01*
X158928588Y-66806320D01*
X158930052Y-66785850D01*
X158971924Y-66729917D01*
X159002900Y-66713002D01*
X159134831Y-66663796D01*
X159250046Y-66577546D01*
X159336296Y-66462331D01*
X159386591Y-66327483D01*
X159393000Y-66267873D01*
X159392999Y-64472128D01*
X159386591Y-64412517D01*
X159380811Y-64397021D01*
X159358793Y-64337986D01*
X159344144Y-64298711D01*
X172132000Y-64298711D01*
X172132000Y-64541288D01*
X172163661Y-64781785D01*
X172226447Y-65016104D01*
X172319273Y-65240205D01*
X172319277Y-65240214D01*
X172341474Y-65278661D01*
X172440564Y-65450289D01*
X172440566Y-65450292D01*
X172440567Y-65450293D01*
X172588233Y-65642736D01*
X172588239Y-65642743D01*
X172759756Y-65814260D01*
X172759762Y-65814265D01*
X172952211Y-65961936D01*
X173162288Y-66083224D01*
X173386400Y-66176054D01*
X173620711Y-66238838D01*
X173801086Y-66262584D01*
X173861211Y-66270500D01*
X173861212Y-66270500D01*
X174103789Y-66270500D01*
X174151888Y-66264167D01*
X174344289Y-66238838D01*
X174578600Y-66176054D01*
X174802712Y-66083224D01*
X175012789Y-65961936D01*
X175205238Y-65814265D01*
X175376765Y-65642738D01*
X175524436Y-65450289D01*
X175645724Y-65240212D01*
X175738554Y-65016100D01*
X175801338Y-64781789D01*
X175833000Y-64541288D01*
X175833000Y-64298712D01*
X175801338Y-64058211D01*
X175738554Y-63823900D01*
X175645724Y-63599788D01*
X175524436Y-63389711D01*
X175376765Y-63197262D01*
X175376760Y-63197256D01*
X175205243Y-63025739D01*
X175205236Y-63025733D01*
X175012793Y-62878067D01*
X175012792Y-62878066D01*
X175012789Y-62878064D01*
X174802712Y-62756776D01*
X174802705Y-62756773D01*
X174578604Y-62663947D01*
X174344285Y-62601161D01*
X174103789Y-62569500D01*
X174103788Y-62569500D01*
X173861212Y-62569500D01*
X173861211Y-62569500D01*
X173620714Y-62601161D01*
X173386395Y-62663947D01*
X173162294Y-62756773D01*
X173162285Y-62756777D01*
X172952206Y-62878067D01*
X172759763Y-63025733D01*
X172759756Y-63025739D01*
X172588239Y-63197256D01*
X172588233Y-63197263D01*
X172440567Y-63389706D01*
X172319277Y-63599785D01*
X172319273Y-63599794D01*
X172226447Y-63823895D01*
X172163661Y-64058214D01*
X172132000Y-64298711D01*
X159344144Y-64298711D01*
X159336297Y-64277671D01*
X159336293Y-64277664D01*
X159250047Y-64162455D01*
X159250044Y-64162452D01*
X159134835Y-64076206D01*
X159134828Y-64076202D01*
X158999982Y-64025908D01*
X158999983Y-64025908D01*
X158940383Y-64019501D01*
X158940381Y-64019500D01*
X158940373Y-64019500D01*
X158940364Y-64019500D01*
X157144629Y-64019500D01*
X157144623Y-64019501D01*
X157085016Y-64025908D01*
X156950171Y-64076202D01*
X156950164Y-64076206D01*
X156834955Y-64162452D01*
X156834952Y-64162455D01*
X156748706Y-64277664D01*
X156748702Y-64277671D01*
X156701648Y-64403833D01*
X156659777Y-64459767D01*
X156594313Y-64484184D01*
X156585466Y-64484500D01*
X155093807Y-64484500D01*
X155026768Y-64464815D01*
X155006126Y-64448181D01*
X154954966Y-64397021D01*
X154954964Y-64397019D01*
X154794194Y-64280213D01*
X154789191Y-64277664D01*
X154617132Y-64189994D01*
X154617129Y-64189993D01*
X154428137Y-64128587D01*
X154329998Y-64113043D01*
X154231861Y-64097500D01*
X154033139Y-64097500D01*
X153967714Y-64107862D01*
X153836862Y-64128587D01*
X153647870Y-64189993D01*
X153647867Y-64189994D01*
X153470805Y-64280213D01*
X153310033Y-64397021D01*
X153169521Y-64537533D01*
X153052713Y-64698305D01*
X152962494Y-64875367D01*
X152962493Y-64875370D01*
X152901087Y-65064362D01*
X152870000Y-65260639D01*
X152870000Y-65459360D01*
X152901087Y-65655637D01*
X152962493Y-65844629D01*
X152962494Y-65844632D01*
X153052713Y-66021694D01*
X153169519Y-66182464D01*
X153310036Y-66322981D01*
X153470806Y-66439787D01*
X153627832Y-66519796D01*
X153678627Y-66567769D01*
X153695422Y-66635590D01*
X153672885Y-66701725D01*
X153627832Y-66740764D01*
X153471066Y-66820641D01*
X153433783Y-66847729D01*
X153433782Y-66847730D01*
X154048406Y-67462352D01*
X153960929Y-67485792D01*
X153859570Y-67544311D01*
X153776811Y-67627070D01*
X153718292Y-67728429D01*
X153694852Y-67815905D01*
X153080230Y-67201282D01*
X153080229Y-67201283D01*
X153053143Y-67238564D01*
X152962957Y-67415562D01*
X152901575Y-67604476D01*
X152901575Y-67604479D01*
X152870500Y-67800678D01*
X152870500Y-67999321D01*
X152901575Y-68195520D01*
X152901575Y-68195523D01*
X152962957Y-68384437D01*
X153053141Y-68561432D01*
X153080230Y-68598715D01*
X153080231Y-68598716D01*
X153694852Y-67984094D01*
X153718292Y-68071571D01*
X153776811Y-68172930D01*
X153859570Y-68255689D01*
X153960929Y-68314208D01*
X154048405Y-68337647D01*
X153433783Y-68952268D01*
X153433783Y-68952269D01*
X153471067Y-68979358D01*
X153627831Y-69059234D01*
X153678627Y-69107209D01*
X153695422Y-69175030D01*
X153672884Y-69241165D01*
X153627831Y-69280204D01*
X153470805Y-69360213D01*
X153310033Y-69477021D01*
X153169521Y-69617533D01*
X153052713Y-69778305D01*
X152962494Y-69955367D01*
X152962493Y-69955370D01*
X152901087Y-70144362D01*
X152870000Y-70340639D01*
X152870000Y-70539360D01*
X152901087Y-70735637D01*
X152962493Y-70924629D01*
X152962494Y-70924632D01*
X153052713Y-71101694D01*
X153169519Y-71262464D01*
X153310036Y-71402981D01*
X153470806Y-71519787D01*
X153525178Y-71547491D01*
X153627280Y-71599515D01*
X153678076Y-71647490D01*
X153694871Y-71715311D01*
X153672333Y-71781446D01*
X153627280Y-71820485D01*
X153470805Y-71900213D01*
X153310033Y-72017021D01*
X153169521Y-72157533D01*
X153052713Y-72318305D01*
X152962494Y-72495367D01*
X152962493Y-72495370D01*
X152901087Y-72684362D01*
X152901087Y-72684364D01*
X152870000Y-72880639D01*
X152870000Y-73079361D01*
X152882706Y-73159581D01*
X152901087Y-73275637D01*
X152962493Y-73464629D01*
X152962494Y-73464632D01*
X153052713Y-73641694D01*
X153169519Y-73802464D01*
X153310036Y-73942981D01*
X153470806Y-74059787D01*
X153525178Y-74087491D01*
X153627280Y-74139515D01*
X153678076Y-74187490D01*
X153694871Y-74255311D01*
X153672333Y-74321446D01*
X153627280Y-74360485D01*
X153470805Y-74440213D01*
X153310033Y-74557021D01*
X153169521Y-74697533D01*
X153052713Y-74858305D01*
X152962494Y-75035367D01*
X152962493Y-75035370D01*
X152901087Y-75224362D01*
X152870000Y-75420639D01*
X152870000Y-75619360D01*
X152901087Y-75815637D01*
X152962493Y-76004629D01*
X152962494Y-76004632D01*
X153047009Y-76170500D01*
X153052713Y-76181694D01*
X153169519Y-76342464D01*
X153310036Y-76482981D01*
X153470806Y-76599787D01*
X153525178Y-76627491D01*
X153627280Y-76679515D01*
X153678076Y-76727490D01*
X153694871Y-76795311D01*
X153672333Y-76861446D01*
X153627280Y-76900485D01*
X153470805Y-76980213D01*
X153310033Y-77097021D01*
X153169521Y-77237533D01*
X153052713Y-77398305D01*
X152962494Y-77575367D01*
X152962493Y-77575370D01*
X152901087Y-77764362D01*
X152870000Y-77960639D01*
X152870000Y-78159360D01*
X152901087Y-78355637D01*
X152962493Y-78544629D01*
X152962494Y-78544632D01*
X153039112Y-78695000D01*
X153052713Y-78721694D01*
X153169519Y-78882464D01*
X153310036Y-79022981D01*
X153470806Y-79139787D01*
X153589332Y-79200179D01*
X153627280Y-79219515D01*
X153678076Y-79267490D01*
X153694871Y-79335311D01*
X153672333Y-79401446D01*
X153627280Y-79440485D01*
X153470805Y-79520213D01*
X153310033Y-79637021D01*
X153169521Y-79777533D01*
X153052713Y-79938305D01*
X152962494Y-80115367D01*
X152962493Y-80115370D01*
X152901087Y-80304362D01*
X152870000Y-80500639D01*
X152870000Y-80699360D01*
X152901087Y-80895637D01*
X152962493Y-81084629D01*
X152962494Y-81084632D01*
X153052713Y-81261694D01*
X153169519Y-81422464D01*
X153310036Y-81562981D01*
X153470806Y-81679787D01*
X153557649Y-81724035D01*
X153647867Y-81770005D01*
X153647870Y-81770006D01*
X153742366Y-81800709D01*
X153836864Y-81831413D01*
X154033139Y-81862500D01*
X154033140Y-81862500D01*
X154231860Y-81862500D01*
X154231861Y-81862500D01*
X154379399Y-81839132D01*
X154448692Y-81848087D01*
X154486478Y-81873924D01*
X156060373Y-83447819D01*
X156093858Y-83509142D01*
X156088874Y-83578834D01*
X156047002Y-83634767D01*
X155981538Y-83659184D01*
X155972692Y-83659500D01*
X153083308Y-83659500D01*
X153016269Y-83639815D01*
X152995627Y-83623181D01*
X140166424Y-70793978D01*
X140132939Y-70732655D01*
X140131632Y-70686899D01*
X140136488Y-70656243D01*
X140155000Y-70539361D01*
X140155000Y-70340639D01*
X140123913Y-70144364D01*
X140062505Y-69955368D01*
X140062505Y-69955367D01*
X139972286Y-69778305D01*
X139855481Y-69617536D01*
X139714964Y-69477019D01*
X139554194Y-69360213D01*
X139397718Y-69280484D01*
X139346923Y-69232510D01*
X139330128Y-69164689D01*
X139352665Y-69098554D01*
X139397718Y-69059515D01*
X139554194Y-68979787D01*
X139714964Y-68862981D01*
X139855481Y-68722464D01*
X139972287Y-68561694D01*
X140062505Y-68384632D01*
X140123913Y-68195636D01*
X140155000Y-67999361D01*
X140155000Y-67800639D01*
X140123913Y-67604364D01*
X140075545Y-67455500D01*
X140062506Y-67415370D01*
X140062505Y-67415367D01*
X139994339Y-67281585D01*
X139972287Y-67238306D01*
X139855481Y-67077536D01*
X139714964Y-66937019D01*
X139554194Y-66820213D01*
X139397718Y-66740484D01*
X139346923Y-66692510D01*
X139330128Y-66624689D01*
X139352665Y-66558554D01*
X139397718Y-66519515D01*
X139554194Y-66439787D01*
X139714964Y-66322981D01*
X139855481Y-66182464D01*
X139972287Y-66021694D01*
X140062505Y-65844632D01*
X140123913Y-65655636D01*
X140155000Y-65459361D01*
X140155000Y-65260639D01*
X140123913Y-65064364D01*
X140062505Y-64875368D01*
X140062505Y-64875367D01*
X139972286Y-64698305D01*
X139855481Y-64537536D01*
X139714964Y-64397019D01*
X139554194Y-64280213D01*
X139549191Y-64277664D01*
X139377132Y-64189994D01*
X139377129Y-64189993D01*
X139188137Y-64128587D01*
X139089998Y-64113043D01*
X138991861Y-64097500D01*
X138793139Y-64097500D01*
X138727714Y-64107862D01*
X138596862Y-64128587D01*
X138407870Y-64189993D01*
X138407867Y-64189994D01*
X138230802Y-64280215D01*
X138119862Y-64360818D01*
X138054056Y-64384298D01*
X138046977Y-64384500D01*
X136428264Y-64384500D01*
X136361225Y-64364815D01*
X136315470Y-64312011D01*
X136312082Y-64303833D01*
X136261297Y-64167671D01*
X136261293Y-64167664D01*
X136175047Y-64052455D01*
X136175044Y-64052452D01*
X136059835Y-63966206D01*
X136059828Y-63966202D01*
X135924982Y-63915908D01*
X135924983Y-63915908D01*
X135865383Y-63909501D01*
X135865381Y-63909500D01*
X135865373Y-63909500D01*
X135865364Y-63909500D01*
X134069629Y-63909500D01*
X134069623Y-63909501D01*
X134010016Y-63915908D01*
X133875171Y-63966202D01*
X133875164Y-63966206D01*
X133759955Y-64052452D01*
X133759952Y-64052455D01*
X133673706Y-64167664D01*
X133673702Y-64167671D01*
X133623408Y-64302517D01*
X133617001Y-64362116D01*
X133617000Y-64362135D01*
X133173000Y-64362135D01*
X133173000Y-63963750D01*
X133173226Y-63956263D01*
X133190771Y-63666205D01*
X133192576Y-63651340D01*
X133202024Y-63599788D01*
X133244280Y-63369197D01*
X133247864Y-63354663D01*
X133296912Y-63197263D01*
X133333196Y-63080822D01*
X133338498Y-63066841D01*
X133456231Y-62805249D01*
X133463176Y-62792016D01*
X133611580Y-62546526D01*
X133620067Y-62534230D01*
X133796980Y-62308417D01*
X133806895Y-62297226D01*
X134009726Y-62094395D01*
X134020917Y-62084480D01*
X134246730Y-61907567D01*
X134259026Y-61899080D01*
X134504516Y-61750676D01*
X134517749Y-61743731D01*
X134779341Y-61625998D01*
X134793322Y-61620696D01*
X135067168Y-61535362D01*
X135081697Y-61531780D01*
X135363844Y-61480075D01*
X135378701Y-61478271D01*
X135668764Y-61460726D01*
X135676251Y-61460500D01*
X135738392Y-61460500D01*
X174376608Y-61460500D01*
X174438749Y-61460500D01*
X174446236Y-61460726D01*
G37*
%TD.AperFunction*%
%TD*%
M02*
