%TF.GenerationSoftware,KiCad,Pcbnew,9.0.3*%
%TF.CreationDate,2025-07-25T20:06:53+07:00*%
%TF.ProjectId,Pathfinder,50617468-6669-46e6-9465-722e6b696361,rev?*%
%TF.SameCoordinates,Original*%
%TF.FileFunction,Soldermask,Top*%
%TF.FilePolarity,Negative*%
%FSLAX46Y46*%
G04 Gerber Fmt 4.6, Leading zero omitted, Abs format (unit mm)*
G04 Created by KiCad (PCBNEW 9.0.3) date 2025-07-25 20:06:53*
%MOMM*%
%LPD*%
G01*
G04 APERTURE LIST*
G04 Aperture macros list*
%AMRoundRect*
0 Rectangle with rounded corners*
0 $1 Rounding radius*
0 $2 $3 $4 $5 $6 $7 $8 $9 X,Y pos of 4 corners*
0 Add a 4 corners polygon primitive as box body*
4,1,4,$2,$3,$4,$5,$6,$7,$8,$9,$2,$3,0*
0 Add four circle primitives for the rounded corners*
1,1,$1+$1,$2,$3*
1,1,$1+$1,$4,$5*
1,1,$1+$1,$6,$7*
1,1,$1+$1,$8,$9*
0 Add four rect primitives between the rounded corners*
20,1,$1+$1,$2,$3,$4,$5,0*
20,1,$1+$1,$4,$5,$6,$7,0*
20,1,$1+$1,$6,$7,$8,$9,0*
20,1,$1+$1,$8,$9,$2,$3,0*%
G04 Aperture macros list end*
%ADD10O,1.700000X1.700000*%
%ADD11R,1.700000X1.700000*%
%ADD12C,1.400000*%
%ADD13C,1.700000*%
%ADD14C,4.000000*%
%ADD15C,2.200000*%
%ADD16C,2.019000*%
%ADD17RoundRect,0.102000X-0.907500X-0.907500X0.907500X-0.907500X0.907500X0.907500X-0.907500X0.907500X0*%
%ADD18RoundRect,0.152400X1.063600X0.609600X-1.063600X0.609600X-1.063600X-0.609600X1.063600X-0.609600X0*%
%ADD19C,1.524000*%
%ADD20RoundRect,0.152400X-1.063600X-0.609600X1.063600X-0.609600X1.063600X0.609600X-1.063600X0.609600X0*%
%ADD21RoundRect,0.102000X0.907500X0.907500X-0.907500X0.907500X-0.907500X-0.907500X0.907500X-0.907500X0*%
%ADD22C,3.200000*%
%ADD23C,1.500000*%
G04 APERTURE END LIST*
D10*
%TO.C,J2*%
X158042500Y-80610000D03*
X158042500Y-78070000D03*
X158042500Y-75530000D03*
X158042500Y-72990000D03*
X158042500Y-70450000D03*
X158042500Y-67910000D03*
D11*
X158042500Y-65370000D03*
%TD*%
D10*
%TO.C,J1*%
X134967500Y-80500000D03*
X134967500Y-77960000D03*
X134967500Y-75420000D03*
X134967500Y-72880000D03*
X134967500Y-70340000D03*
X134967500Y-67800000D03*
D11*
X134967500Y-65260000D03*
%TD*%
D12*
%TO.C,R2*%
X148137500Y-89335000D03*
X153217500Y-89335000D03*
%TD*%
%TO.C,R1*%
X138642500Y-89335000D03*
X143722500Y-89335000D03*
%TD*%
D13*
%TO.C,SW4*%
X159562500Y-121900000D03*
D14*
X164642500Y-121900000D03*
D13*
X169722500Y-121900000D03*
D15*
X167182500Y-116820000D03*
X160832500Y-119360000D03*
%TD*%
D12*
%TO.C,R3*%
X157637500Y-89335000D03*
X162717500Y-89335000D03*
%TD*%
D16*
%TO.C,D4*%
X171682500Y-79325106D03*
D17*
X169142500Y-79325106D03*
%TD*%
D12*
%TO.C,R4*%
X167127500Y-89335000D03*
X172207500Y-89335000D03*
%TD*%
D18*
%TO.C,XIAO-RP2040*%
X138057500Y-65360000D03*
D19*
X138892500Y-65360000D03*
D18*
X138057500Y-67900000D03*
D19*
X138892500Y-67900000D03*
D18*
X138057500Y-70440000D03*
D19*
X138892500Y-70440000D03*
D18*
X138057500Y-72980000D03*
D19*
X138892500Y-72980000D03*
D18*
X138057500Y-75520000D03*
D19*
X138892500Y-75520000D03*
D18*
X138057500Y-78060000D03*
D19*
X138892500Y-78060000D03*
D18*
X138057500Y-80600000D03*
D19*
X138892500Y-80600000D03*
X154132500Y-80600000D03*
D20*
X154967500Y-80600000D03*
D19*
X154132500Y-78060000D03*
D20*
X154967500Y-78060000D03*
D19*
X154132500Y-75520000D03*
D20*
X154967500Y-75520000D03*
D19*
X154132500Y-72980000D03*
D20*
X154967500Y-72980000D03*
D19*
X154132500Y-70440000D03*
D20*
X154967500Y-70440000D03*
D19*
X154132500Y-67900000D03*
D20*
X154967500Y-67900000D03*
D19*
X154132500Y-65360000D03*
D20*
X154967500Y-65360000D03*
%TD*%
D21*
%TO.C,D1*%
X164389573Y-79300000D03*
D16*
X161849573Y-79300000D03*
%TD*%
D22*
%TO.C,REF\u002A\u002A*%
X173982500Y-64420000D03*
%TD*%
D16*
%TO.C,D2*%
X161850000Y-71894894D03*
D21*
X164390000Y-71894894D03*
%TD*%
D13*
%TO.C,SW2*%
X159562500Y-102900000D03*
D14*
X164642500Y-102900000D03*
D13*
X169722500Y-102900000D03*
D15*
X167182500Y-97820000D03*
X160832500Y-100360000D03*
%TD*%
D23*
%TO.C,J3*%
X166650000Y-67850000D03*
%TD*%
D13*
%TO.C,SW1*%
X140372500Y-102900000D03*
D14*
X145452500Y-102900000D03*
D13*
X150532500Y-102900000D03*
D15*
X147992500Y-97820000D03*
X141642500Y-100360000D03*
%TD*%
D16*
%TO.C,D3*%
X171682500Y-71860000D03*
D17*
X169142500Y-71860000D03*
%TD*%
D13*
%TO.C,SW3*%
X140372500Y-121900000D03*
D14*
X145452500Y-121900000D03*
D13*
X150532500Y-121900000D03*
D15*
X147992500Y-116820000D03*
X141642500Y-119360000D03*
%TD*%
M02*
